<svg width="51" height="50" viewBox="0 0 51 50" fill="none" xmlns="http://www.w3.org/2000/svg">
<g clip-path="url(#clip0_26_95)">
<path d="M50.3464 25C50.3464 11.193 39.1711 0 25.3858 0C11.6005 0 0.425171 11.193 0.425171 25C0.425171 37.4781 9.55296 47.8209 21.4857 49.6963V32.2266H15.148V25H21.4857V19.4922C21.4857 13.2266 25.2122 9.76562 30.9138 9.76562C33.6446 9.76562 36.5011 10.2539 36.5011 10.2539V16.4062H33.3537C30.2529 16.4062 29.2859 18.3334 29.2859 20.3105V25H36.2086L35.1019 32.2266H29.2859V49.6963C41.2186 47.8209 50.3464 37.4783 50.3464 25Z" fill="#1877F2"/>
<path d="M35.1019 32.2266L36.2086 25H29.2859V20.3105C29.2859 18.3332 30.253 16.4062 33.3537 16.4062H36.5011V10.2539C36.5011 10.2539 33.6447 9.76562 30.9136 9.76562C25.2123 9.76562 21.4857 13.2266 21.4857 19.4922V25H15.1481V32.2266H21.4857V49.6963C22.7759 49.8988 24.0799 50.0003 25.3858 50C26.6918 50.0003 27.9957 49.8988 29.2859 49.6963V32.2266H35.1019Z" fill="white"/>
</g>
<defs>
<clipPath id="clip0_26_95">
<rect width="49.9213" height="50" fill="white" transform="translate(0.425171)"/>
</clipPath>
</defs>
</svg>
