<svg width="50" height="50" viewBox="0 0 50 50" fill="none" xmlns="http://www.w3.org/2000/svg">
<g clip-path="url(#clip0_26_80)">
<path d="M38.2273 0H11.7066C5.24475 0 0.00634766 5.24666 0.00634766 11.7188V38.2812C0.00634766 44.7533 5.24475 50 11.7066 50H38.2273C44.6892 50 49.9276 44.7533 49.9276 38.2812V11.7188C49.9276 5.24666 44.6892 0 38.2273 0Z" fill="url(#paint0_radial_26_80)"/>
<path d="M38.2273 0H11.7066C5.24475 0 0.00634766 5.24666 0.00634766 11.7188V38.2812C0.00634766 44.7533 5.24475 50 11.7066 50H38.2273C44.6892 50 49.9276 44.7533 49.9276 38.2812V11.7188C49.9276 5.24666 44.6892 0 38.2273 0Z" fill="url(#paint1_radial_26_80)"/>
<path d="M24.9687 5.46875C19.6728 5.46875 19.008 5.49199 16.9281 5.58672C14.8521 5.68203 13.435 6.01113 12.1951 6.49414C10.9124 6.99297 9.82446 7.66035 8.74062 8.74629C7.65581 9.83203 6.98948 10.9217 6.48988 12.2059C6.00627 13.448 5.67729 14.868 5.58388 16.9463C5.49087 19.0297 5.46649 19.6957 5.46649 25.0002C5.46649 30.3047 5.48989 30.9684 5.58427 33.0516C5.67983 35.1309 6.00841 36.5502 6.49027 37.792C6.9887 39.0768 7.65503 40.1664 8.73926 41.252C9.8229 42.3385 10.9108 43.0074 12.1926 43.5062C13.4334 43.9893 14.8507 44.3184 16.9263 44.4137C19.0065 44.5084 19.6707 44.5316 24.9664 44.5316C30.2629 44.5316 30.9256 44.5084 33.0055 44.4137C35.0815 44.3184 36.5002 43.9893 37.741 43.5062C39.0231 43.0074 40.1095 42.3385 41.193 41.252C42.2778 40.1664 42.9439 39.0768 43.4437 37.7926C43.923 36.5502 44.2522 35.1305 44.3497 33.052C44.4431 30.9688 44.4675 30.3047 44.4675 25.0002C44.4675 19.6957 44.4431 19.0301 44.3497 16.9467C44.2522 14.8674 43.923 13.4482 43.4437 12.2064C42.9439 10.9217 42.2778 9.83203 41.193 8.74629C40.1083 7.65996 39.0235 6.99258 37.7398 6.49434C36.4967 6.01113 35.0788 5.68184 33.0027 5.58672C30.9226 5.49199 30.2604 5.46875 24.9627 5.46875H24.9687ZM23.2194 8.98848C23.7386 8.9877 24.318 8.98848 24.9687 8.98848C30.1756 8.98848 30.7926 9.00723 32.8487 9.10078C34.75 9.18789 35.782 9.50605 36.4694 9.77344C37.3794 10.1273 38.0282 10.5506 38.7104 11.2344C39.3929 11.918 39.8152 12.5689 40.1696 13.4805C40.4365 14.168 40.7546 15.2016 40.8412 17.1059C40.9346 19.1648 40.9549 19.7832 40.9549 24.9957C40.9549 30.2082 40.9346 30.8268 40.8412 32.8855C40.7542 34.7898 40.4365 35.8234 40.1696 36.5111C39.8162 37.4227 39.3929 38.0717 38.7104 38.7549C38.0278 39.4385 37.3798 39.8615 36.4694 40.2156C35.7827 40.4842 34.75 40.8016 32.8487 40.8887C30.793 40.9822 30.1756 41.0025 24.9687 41.0025C19.7617 41.0025 19.1445 40.9822 17.089 40.8887C15.1877 40.8008 14.1557 40.4826 13.4677 40.2152C12.5578 39.8611 11.9077 39.4381 11.2252 38.7545C10.5427 38.0709 10.1203 37.4215 9.76596 36.5096C9.499 35.8219 9.18095 34.7883 9.09436 32.884C9.00096 30.825 8.98224 30.2066 8.98224 24.9908C8.98224 19.775 9.00096 19.16 9.09436 17.101C9.18134 15.1967 9.499 14.1631 9.76596 13.4746C10.1195 12.5631 10.5427 11.9121 11.2254 11.2285C11.9081 10.5449 12.5578 10.1217 13.4679 9.76699C14.1553 9.49844 15.1877 9.18105 17.089 9.09355C18.8879 9.01211 19.585 8.98769 23.2194 8.98359V8.98848ZM35.3781 12.2314C34.0862 12.2314 33.038 13.2803 33.038 14.5744C33.038 15.8684 34.0862 16.9182 35.3781 16.9182C36.67 16.9182 37.7182 15.8684 37.7182 14.5744C37.7182 13.2805 36.67 12.2307 35.3781 12.2307V12.2314ZM24.9687 14.9699C19.4384 14.9699 14.9545 19.4609 14.9545 25.0002C14.9545 30.5395 19.4384 35.0283 24.9687 35.0283C30.4993 35.0283 34.9817 30.5395 34.9817 25.0002C34.9817 19.4611 30.4989 14.9699 24.9684 14.9699H24.9687ZM24.9687 18.4896C28.5586 18.4896 31.469 21.4043 31.469 25.0002C31.469 28.5957 28.5586 31.5107 24.9687 31.5107C21.3789 31.5107 18.4686 28.5957 18.4686 25.0002C18.4686 21.4043 21.3787 18.4896 24.9687 18.4896Z" fill="white"/>
</g>
<defs>
<radialGradient id="paint0_radial_26_80" cx="0" cy="0" r="1" gradientUnits="userSpaceOnUse" gradientTransform="translate(13.2667 53.851) rotate(-90) scale(49.5537 46.0163)">
<stop stop-color="#FFDD55"/>
<stop offset="0.1" stop-color="#FFDD55"/>
<stop offset="0.5" stop-color="#FF543E"/>
<stop offset="1" stop-color="#C837AB"/>
</radialGradient>
<radialGradient id="paint1_radial_26_80" cx="0" cy="0" r="1" gradientUnits="userSpaceOnUse" gradientTransform="translate(-8.35566 3.60176) rotate(78.6984) scale(22.1494 91.168)">
<stop stop-color="#3771C8"/>
<stop offset="0.128" stop-color="#3771C8"/>
<stop offset="1" stop-color="#6600FF" stop-opacity="0"/>
</radialGradient>
<clipPath id="clip0_26_80">
<rect width="49.9213" height="50" fill="white" transform="translate(0.00634766)"/>
</clipPath>
</defs>
</svg>
