<svg width="51" height="50" viewBox="0 0 51 50" fill="none" xmlns="http://www.w3.org/2000/svg">
<g clip-path="url(#clip0_26_90)">
<path d="M38.8321 0H12.3114C5.84948 0 0.611084 5.24666 0.611084 11.7188V38.2812C0.611084 44.7533 5.84948 50 12.3114 50H38.8321C45.2939 50 50.5323 44.7533 50.5323 38.2812V11.7188C50.5323 5.24666 45.2939 0 38.8321 0Z" fill="white"/>
<path d="M38.8321 0H12.3114C5.84948 0 0.611084 5.24666 0.611084 11.7188V38.2812C0.611084 44.7533 5.84948 50 12.3114 50H38.8321C45.2939 50 50.5323 44.7533 50.5323 38.2812V11.7188C50.5323 5.24666 45.2939 0 38.8321 0Z" fill="#0A66C2"/>
<path d="M36.6314 42.5166H42.3392C42.5461 42.5166 42.7445 42.4343 42.8907 42.2878C43.037 42.1414 43.1192 41.9427 43.1193 41.7355L43.1222 29.657C43.1222 23.3439 41.764 18.4914 34.3981 18.4914C31.598 18.3871 28.9574 19.8328 27.5325 22.2469C27.5256 22.2586 27.5149 22.2677 27.5023 22.2728C27.4897 22.278 27.4757 22.2788 27.4626 22.2752C27.4494 22.2717 27.4378 22.2639 27.4295 22.2531C27.4212 22.2423 27.4166 22.2291 27.4165 22.2154V19.8555C27.4165 19.6483 27.3343 19.4496 27.188 19.303C27.0417 19.1565 26.8433 19.0742 26.6365 19.0742H21.2198C21.0129 19.0742 20.8145 19.1565 20.6683 19.303C20.522 19.4496 20.4398 19.6483 20.4398 19.8555V41.7344C20.4398 41.9416 20.522 42.1403 20.6683 42.2868C20.8145 42.4333 21.0129 42.5156 21.2198 42.5156H26.9272C27.1341 42.5156 27.3325 42.4333 27.4788 42.2868C27.6251 42.1403 27.7072 41.9416 27.7072 41.7344V30.9193C27.7072 27.8613 28.2864 24.8998 32.0716 24.8998C35.8031 24.8998 35.8514 28.399 35.8514 31.1174V41.7354C35.8514 41.9426 35.9336 42.1413 36.0799 42.2878C36.2262 42.4343 36.4246 42.5166 36.6314 42.5166ZM8.0213 11.6461C8.0213 13.9633 9.92591 15.8699 12.2396 15.8699C14.5528 15.8697 16.4562 13.9619 16.4562 11.6451C16.4558 9.32832 14.5522 7.42188 12.2389 7.42188C9.92494 7.42188 8.0213 9.32891 8.0213 11.6461ZM9.37834 42.5166H15.0933C15.3002 42.5166 15.4986 42.4343 15.6449 42.2878C15.7912 42.1413 15.8734 41.9426 15.8734 41.7354V19.8555C15.8734 19.6483 15.7912 19.4496 15.6449 19.303C15.4986 19.1565 15.3002 19.0742 15.0933 19.0742H9.37834C9.17147 19.0742 8.97307 19.1565 8.82678 19.303C8.6805 19.4496 8.59832 19.6483 8.59832 19.8555V41.7354C8.59832 41.9426 8.6805 42.1413 8.82678 42.2878C8.97307 42.4343 9.17147 42.5166 9.37834 42.5166Z" fill="white"/>
</g>
<defs>
<clipPath id="clip0_26_90">
<rect width="49.9213" height="50" fill="white" transform="translate(0.611084)"/>
</clipPath>
</defs>
</svg>
