<svg width="224" height="137" viewBox="0 0 224 137" fill="none" xmlns="http://www.w3.org/2000/svg">
<path d="M131.139 34.125H141.222L107.611 0L74 34.125H84.0833L107.611 10.1996L131.139 34.125ZM90.8055 6.86292V0H80.7222V17.0625L90.8055 6.86292Z" fill="white"/>
<path d="M99.093 34.2499H106.209L114.013 28.0624C114.234 27.8867 114.496 27.7472 114.785 27.652C115.074 27.5568 115.385 27.5078 115.698 27.5078C116.011 27.5078 116.321 27.5568 116.61 27.652C116.899 27.7472 117.161 27.8867 117.382 28.0624L123.502 32.9187C123.944 33.27 124.192 33.7452 124.192 34.2406C124.192 34.7359 123.944 35.2111 123.502 35.5624L118.07 39.8749H99.093V43.6249C99.093 44.1222 98.8431 44.5991 98.3983 44.9508C97.9534 45.3024 97.35 45.4999 96.7209 45.4999C96.0918 45.4999 95.4885 45.3024 95.0436 44.9508C94.5988 44.5991 94.3488 44.1222 94.3488 43.6249V37.9999C94.3488 37.0054 94.8487 36.0515 95.7384 35.3483C96.6281 34.645 97.8348 34.2499 99.093 34.2499ZM84.8605 43.6249V51.1249L79.4284 55.4187C78.9866 55.77 78.7386 56.2452 78.7386 56.7406C78.7386 57.2359 78.9866 57.7111 79.4284 58.0624L85.5484 62.9187C85.7689 63.0944 86.0312 63.2339 86.3203 63.3291C86.6094 63.4243 86.9194 63.4733 87.2326 63.4733C87.5457 63.4733 87.8558 63.4243 88.1448 63.3291C88.4339 63.2339 88.6962 63.0944 88.9167 62.9187L99.093 54.8749H108.581C109.211 54.8749 109.814 54.6774 110.259 54.3258C110.704 53.9741 110.953 53.4972 110.953 52.9999V51.1249H113.326C113.955 51.1249 114.558 50.9274 115.003 50.5758C115.448 50.2241 115.698 49.7472 115.698 49.2499V47.3749H118.07C118.699 47.3749 119.302 47.1774 119.747 46.8258C120.192 46.4741 120.442 45.9972 120.442 45.4999V43.6249H103.837V45.4999C103.837 46.4945 103.337 47.4483 102.448 48.1516C101.558 48.8548 100.351 49.2499 99.093 49.2499H94.3488C93.0906 49.2499 91.8839 48.8548 90.9942 48.1516C90.1045 47.4483 89.6047 46.4945 89.6047 45.4999V39.8749L84.8605 43.6249Z" fill="white"/>
<path d="M2.01089 75.0312C4.34423 75.1146 6.20881 75.1562 7.60464 75.1562C10.2088 75.0729 11.8078 75.0312 12.4015 75.0312C13.3703 75.0312 14.2817 75.0729 15.1359 75.1562C15.9901 75.2396 16.8703 75.3958 17.7765 75.625C18.6932 75.8438 19.5213 76.1354 20.2609 76.5C21.0005 76.8542 21.7088 77.3281 22.3859 77.9219C23.063 78.5156 23.6307 79.2031 24.089 79.9844C24.5474 80.7656 24.9119 81.7083 25.1828 82.8125C25.4536 83.9062 25.589 85.1198 25.589 86.4531C25.5057 87.7344 25.2817 88.9115 24.9171 89.9844C24.563 91.0573 24.1046 91.9844 23.5421 92.7656C22.9901 93.5469 22.3338 94.2448 21.5734 94.8594C20.813 95.474 20.0161 95.974 19.1828 96.3594C18.3599 96.7448 17.464 97.0625 16.4953 97.3125C15.5369 97.5625 14.5994 97.7396 13.6828 97.8438C12.7765 97.9479 11.839 98 10.8703 98C6.96402 98 4.00048 98.0312 1.97964 98.0938C1.93798 97.9688 1.91714 97.8646 1.91714 97.7812C1.91714 97.7083 1.93798 97.5677 1.97964 97.3594C2.29214 97.3281 2.54214 97.3021 2.72964 97.2812C2.91714 97.2604 3.17235 97.224 3.49527 97.1719C3.8286 97.1198 4.09423 97.0625 4.29214 97C4.50048 96.9271 4.71402 96.8385 4.93277 96.7344C5.15152 96.6302 5.31298 96.5052 5.41714 96.3594C5.53173 96.2135 5.58902 96.0469 5.58902 95.8594C5.71402 92.599 5.77652 89.3125 5.77652 86C5.77652 82.625 5.72444 79.7135 5.62027 77.2656C5.60985 76.9948 5.49006 76.7656 5.26089 76.5781C5.03173 76.3802 4.69839 76.2292 4.26089 76.125C3.83381 76.0208 3.46923 75.9479 3.16714 75.9062C2.87548 75.8542 2.49006 75.8073 2.01089 75.7656C1.96923 75.5781 1.94839 75.4479 1.94839 75.375C1.94839 75.3125 1.96923 75.1979 2.01089 75.0312ZM9.27652 77.2656C9.1411 80.8073 9.07339 84.1042 9.07339 87.1562C9.07339 88.8438 9.13069 92.0729 9.24527 96.8438C9.69319 96.8646 10.3338 96.875 11.1671 96.875C12.8546 96.875 14.3546 96.6198 15.6671 96.1094C16.9796 95.5885 18.0578 94.8646 18.9015 93.9375C19.7453 93.0104 20.3807 91.9167 20.8078 90.6562C21.2453 89.3854 21.464 87.9844 21.464 86.4531C21.464 85.6615 21.4015 84.8854 21.2765 84.125C21.1515 83.3646 20.9536 82.5885 20.6828 81.7969C20.4119 81.0052 20.0369 80.276 19.5578 79.6094C19.0786 78.9427 18.5057 78.349 17.839 77.8281C17.1828 77.2969 16.3703 76.8854 15.4015 76.5938C14.4432 76.2917 13.3807 76.1406 12.214 76.1406C11.1411 76.1406 10.1619 76.2083 9.27652 76.3438V77.2656ZM41.1046 89.7188H32.589C32.5474 90.3438 32.5265 90.8958 32.5265 91.375C32.5578 92.9271 33.0109 94.1719 33.8859 95.1094C34.7609 96.0365 35.9328 96.5 37.4015 96.5C37.7974 96.5 38.1671 96.4583 38.5109 96.375C38.8546 96.2812 39.1359 96.1771 39.3546 96.0625C39.5838 95.9479 39.8182 95.7812 40.0578 95.5625C40.2974 95.3438 40.4692 95.1719 40.5734 95.0469C40.688 94.9115 40.839 94.7135 41.0265 94.4531C41.214 94.1823 41.339 94.0104 41.4015 93.9375C41.6515 93.9896 41.8546 94.1042 42.0109 94.2812C41.4901 95.6771 40.6828 96.724 39.589 97.4219C38.4953 98.1094 37.3078 98.4531 36.0265 98.4531C35.3911 98.4531 34.7713 98.3698 34.1671 98.2031C33.5734 98.0469 32.9953 97.7865 32.4328 97.4219C31.8703 97.0573 31.3807 96.6094 30.964 96.0781C30.5474 95.5365 30.214 94.8646 29.964 94.0625C29.714 93.25 29.589 92.3542 29.589 91.375C29.589 89.1771 30.2609 87.3646 31.6046 85.9375C32.9484 84.5104 34.5994 83.7969 36.5578 83.7969C37.4224 83.7969 38.1724 83.9219 38.8078 84.1719C39.4536 84.4115 39.9536 84.7396 40.3078 85.1562C40.6724 85.5729 40.938 86.0312 41.1046 86.5312C41.2817 87.0208 41.3703 87.5469 41.3703 88.1094C41.3703 88.6302 41.2817 89.1667 41.1046 89.7188ZM36.1828 84.8125C35.464 84.8125 34.7817 85.1302 34.1359 85.7656C33.5005 86.401 33.0421 87.3646 32.7609 88.6562H38.3859C38.4901 88.2604 38.5421 87.9167 38.5421 87.625C38.5421 86.8125 38.3546 86.1406 37.9796 85.6094C37.6046 85.0781 37.0057 84.8125 36.1828 84.8125ZM45.9484 87.7344C45.9484 86.5885 46.4692 85.6458 47.5109 84.9062C48.563 84.1667 49.8026 83.7969 51.2296 83.7969C52.9796 83.7969 54.2088 84.1458 54.9171 84.8438C55.6359 85.5417 55.9953 86.7188 55.9953 88.375V94.8594C55.9953 95.4427 56.2088 95.7344 56.6359 95.7344C56.9796 95.7344 57.4171 95.3177 57.9484 94.4844C58.3234 94.5156 58.5786 94.6823 58.714 94.9844C58.6411 95.0885 58.5161 95.276 58.339 95.5469C58.1619 95.8177 58.0317 96.0104 57.9484 96.125C57.8651 96.2396 57.7349 96.4167 57.5578 96.6562C57.3807 96.8854 57.2349 97.0573 57.1203 97.1719C57.0161 97.2865 56.8703 97.4219 56.6828 97.5781C56.5057 97.7344 56.339 97.8542 56.1828 97.9375C56.0369 98.0104 55.8651 98.0729 55.6671 98.125C55.4692 98.1875 55.2713 98.2188 55.0734 98.2188C54.5526 98.2188 54.1203 98.0312 53.7765 97.6562C53.4432 97.2812 53.2453 96.7031 53.1828 95.9219C53.1724 95.9323 53.0109 96.0833 52.6984 96.375C52.3859 96.6667 52.1671 96.8646 52.0421 96.9688C51.9276 97.0625 51.7036 97.2344 51.3703 97.4844C51.0474 97.724 50.7713 97.8958 50.5421 98C50.313 98.1042 50.0265 98.2031 49.6828 98.2969C49.339 98.401 49.0005 98.4531 48.6671 98.4531C48.1359 98.4531 47.6619 98.3802 47.2453 98.2344C46.839 98.0885 46.5213 97.9115 46.2921 97.7031C46.063 97.4948 45.8755 97.2552 45.7296 96.9844C45.5838 96.7031 45.4849 96.4479 45.4328 96.2188C45.3911 95.9896 45.3703 95.7604 45.3703 95.5312C45.3703 94.8333 45.4849 94.2448 45.714 93.7656C45.9536 93.2865 46.3911 92.8385 47.0265 92.4219C47.6724 92.0052 48.464 91.6354 49.4015 91.3125C50.339 90.9896 51.5994 90.625 53.1828 90.2188V88.0469C53.1828 86.9948 52.9484 86.2083 52.4796 85.6875C52.0213 85.1667 51.4015 84.9062 50.6203 84.9062C49.9224 84.9062 49.3338 85.0469 48.8546 85.3281C48.3859 85.599 48.0994 85.9167 47.9953 86.2812C49.0161 86.4375 49.5265 86.9948 49.5265 87.9531C49.5265 88.3906 49.3703 88.776 49.0578 89.1094C48.7453 89.4427 48.3078 89.6094 47.7453 89.6094C47.2765 89.6094 46.8599 89.4479 46.4953 89.125C46.1307 88.7917 45.9484 88.3281 45.9484 87.7344ZM53.1828 94.4844V91.2188C52.2244 91.4375 51.4328 91.6771 50.8078 91.9375C50.1828 92.1875 49.7036 92.4635 49.3703 92.7656C49.0474 93.0677 48.8234 93.3802 48.6984 93.7031C48.5734 94.0156 48.5109 94.3802 48.5109 94.7969C48.5109 95.3177 48.6619 95.7292 48.964 96.0312C49.2765 96.3229 49.6567 96.4688 50.1046 96.4688C51.1463 96.4688 52.1724 95.8073 53.1828 94.4844ZM60.5421 75.5312C62.5213 75.3438 64.2765 74.9167 65.8078 74.25C66.089 74.3646 66.2713 74.5052 66.3546 74.6719C66.3546 86.474 66.3963 93.5365 66.4796 95.8594C66.4901 96.0781 66.5526 96.276 66.6671 96.4531C66.7921 96.6198 66.9276 96.7552 67.0734 96.8594C67.2192 96.9531 67.4171 97.0417 67.6671 97.125C67.9171 97.1979 68.1099 97.25 68.2453 97.2812C68.3911 97.3021 68.5838 97.3281 68.8234 97.3594C68.8859 97.4844 68.9171 97.6146 68.9171 97.75C68.9171 97.8854 68.8859 98 68.8234 98.0938C67.4484 98.0312 66.1151 98 64.8234 98C63.5526 98 62.2296 98.0312 60.8546 98.0938C60.813 97.9271 60.7921 97.8125 60.7921 97.75C60.7921 97.6979 60.813 97.5677 60.8546 97.3594C61.1984 97.3177 61.4744 97.276 61.6828 97.2344C61.9015 97.1823 62.1724 97.1042 62.4953 97C62.8286 96.8958 63.0786 96.75 63.2453 96.5625C63.4119 96.3646 63.5005 96.1302 63.5109 95.8594C63.5526 94.8281 63.5734 92.5208 63.5734 88.9375C63.5734 87.2812 63.5682 85.026 63.5578 82.1719C63.5474 79.3177 63.5421 77.5625 63.5421 76.9062C62.9484 76.5625 61.9484 76.349 60.5421 76.2656C60.4901 76.1302 60.464 76.0052 60.464 75.8906C60.464 75.7865 60.4901 75.6667 60.5421 75.5312ZM78.2609 75.0312C80.4901 75.1146 82.2401 75.1562 83.5109 75.1562C84.7296 75.1562 86.0734 75.1146 87.5421 75.0312C87.5838 75.1979 87.6046 75.3125 87.6046 75.375C87.6046 75.4896 87.5838 75.6198 87.5421 75.7656C86.6359 75.8073 86.0109 75.9219 85.6671 76.1094C85.3338 76.2865 85.1671 76.5208 85.1671 76.8125C85.1671 76.8958 85.1776 76.9948 85.1984 77.1094C85.2296 77.2135 87.3442 82.4375 91.5421 92.7812H91.6984L94.7453 84.6562L91.9953 77.6875C91.5578 76.5625 90.5109 75.9219 88.8546 75.7656C88.813 75.5781 88.7921 75.4479 88.7921 75.375C88.7921 75.2708 88.813 75.1562 88.8546 75.0312C90.3234 75.1146 91.9536 75.1562 93.7453 75.1562C95.3911 75.1562 96.9484 75.1146 98.4171 75.0312C98.4588 75.1979 98.4796 75.3125 98.4796 75.375C98.4796 75.4896 98.4588 75.6198 98.4171 75.7656C97.1567 75.8073 96.339 75.9062 95.964 76.0625C95.5994 76.2083 95.4171 76.4896 95.4171 76.9062C95.4171 76.9167 95.4901 77.1771 95.6359 77.6875L101.402 92.7812H101.558L107.261 77.4844C107.323 77.3281 107.355 77.125 107.355 76.875C107.355 76.5417 107.152 76.3021 106.745 76.1562C106.339 76 105.678 75.8698 104.761 75.7656C104.719 75.5365 104.698 75.3958 104.698 75.3438C104.698 75.2604 104.719 75.1562 104.761 75.0312C106.042 75.0938 107.266 75.125 108.433 75.125C109.568 75.125 110.688 75.0938 111.792 75.0312C111.834 75.1562 111.855 75.2604 111.855 75.3438C111.855 75.5104 111.834 75.651 111.792 75.7656C111.053 75.8385 110.438 75.9948 109.948 76.2344C109.469 76.474 109.094 76.8906 108.823 77.4844L100.886 98.4531H100.183L95.4796 86.5469L91.0265 98.4531H90.3234L81.7453 77.6875C81.2869 76.5833 80.1255 75.9427 78.2609 75.7656C78.2192 75.5781 78.1984 75.4479 78.1984 75.375C78.1984 75.2708 78.2192 75.1562 78.2609 75.0312ZM112.886 85.1406C114.907 84.9323 116.667 84.5052 118.167 83.8594C118.428 83.9635 118.61 84.099 118.714 84.2656C118.714 89.6719 118.756 93.5365 118.839 95.8594C118.849 96.1302 118.928 96.3646 119.073 96.5625C119.23 96.75 119.448 96.8958 119.73 97C120.011 97.1042 120.245 97.1823 120.433 97.2344C120.62 97.276 120.865 97.3177 121.167 97.3594C121.23 97.4844 121.261 97.6146 121.261 97.75C121.261 97.8854 121.23 98 121.167 98.0938C119.792 98.0312 118.459 98 117.167 98C115.896 98 114.573 98.0312 113.198 98.0938C113.157 97.9271 113.136 97.8125 113.136 97.75C113.136 97.6979 113.157 97.5677 113.198 97.3594C113.542 97.3177 113.823 97.276 114.042 97.2344C114.261 97.1823 114.532 97.1042 114.855 97C115.178 96.8958 115.422 96.75 115.589 96.5625C115.756 96.3646 115.844 96.1302 115.855 95.8594C115.896 94.8281 115.917 93.5781 115.917 92.1094C115.917 91.6198 115.912 90.7865 115.902 89.6094C115.891 88.4323 115.886 87.401 115.886 86.5156C115.292 86.151 114.292 85.9375 112.886 85.875C112.844 85.7083 112.823 85.5781 112.823 85.4844C112.823 85.4219 112.844 85.3073 112.886 85.1406ZM115.339 78.6094C115.339 78.0781 115.527 77.625 115.902 77.25C116.287 76.875 116.74 76.6875 117.261 76.6875C117.792 76.6875 118.245 76.875 118.62 77.25C118.995 77.625 119.183 78.0781 119.183 78.6094C119.183 79.1302 118.995 79.5833 118.62 79.9688C118.245 80.3438 117.792 80.5312 117.261 80.5312C116.74 80.5312 116.287 80.3438 115.902 79.9688C115.527 79.5833 115.339 79.1302 115.339 78.6094ZM127.855 81.1406C127.959 81.099 128.079 81.0781 128.214 81.0781C128.349 81.0781 128.49 81.099 128.636 81.1406V84.5625H133.37C133.433 84.7188 133.464 84.9115 133.464 85.1406C133.464 85.3385 133.433 85.5208 133.37 85.6875H128.636V94.0312C128.636 95.6771 129.391 96.5 130.902 96.5C131.474 96.5 131.964 96.3906 132.37 96.1719C132.787 95.9531 133.245 95.625 133.745 95.1875C134.006 95.2188 134.178 95.3438 134.261 95.5625C133.803 96.3854 133.125 97.0729 132.23 97.625C131.334 98.1771 130.349 98.4531 129.277 98.4531C126.756 98.4531 125.495 96.9271 125.495 93.875V85.6875H123.573C123.532 85.5 123.511 85.3802 123.511 85.3281C123.511 85.3177 123.532 85.1979 123.573 84.9688C124.073 84.7188 124.454 84.5156 124.714 84.3594C124.985 84.1927 125.323 83.9583 125.73 83.6562C126.146 83.3542 126.521 83 126.855 82.5938C127.198 82.1771 127.532 81.6927 127.855 81.1406ZM135.792 75.5312C137.771 75.3438 139.527 74.9167 141.058 74.25C141.339 74.3646 141.521 74.5052 141.605 74.6719V86.6719C142.636 85.7969 143.605 85.099 144.511 84.5781C145.417 84.0573 146.339 83.7969 147.277 83.7969C148.454 83.7969 149.292 84.1302 149.792 84.7969C150.292 85.4635 150.553 86.5052 150.573 87.9219L150.698 95.8594C150.709 96.1302 150.787 96.3646 150.933 96.5625C151.089 96.75 151.308 96.8958 151.589 97C151.87 97.1042 152.105 97.1823 152.292 97.2344C152.48 97.276 152.724 97.3177 153.027 97.3594C153.079 97.6198 153.105 97.7604 153.105 97.7812C153.105 97.8333 153.079 97.9375 153.027 98.0938C151.683 98.0312 150.459 98 149.355 98C148.24 98 147.011 98.0312 145.667 98.0938C145.625 97.9271 145.605 97.8021 145.605 97.7188C145.605 97.6458 145.625 97.526 145.667 97.3594C145.938 97.3177 146.162 97.276 146.339 97.2344C146.527 97.1823 146.735 97.1042 146.964 97C147.204 96.8958 147.381 96.75 147.495 96.5625C147.62 96.3646 147.683 96.1302 147.683 95.8594L147.714 88.4375C147.714 86.5521 147.152 85.6094 146.027 85.6094C144.974 85.6094 143.5 86.2917 141.605 87.6562C141.646 91.9896 141.688 94.724 141.73 95.8594C141.74 96.0781 141.803 96.276 141.917 96.4531C142.042 96.6198 142.178 96.7552 142.323 96.8594C142.469 96.9531 142.667 97.0417 142.917 97.125C143.167 97.1979 143.36 97.25 143.495 97.2812C143.641 97.3021 143.834 97.3281 144.073 97.3594C144.136 97.4844 144.167 97.6146 144.167 97.75C144.167 97.8854 144.136 98 144.073 98.0938C142.698 98.0312 141.365 98 140.073 98C138.803 98 137.48 98.0312 136.105 98.0938C136.063 97.9271 136.042 97.8125 136.042 97.75C136.042 97.6979 136.063 97.5677 136.105 97.3594C136.448 97.3177 136.724 97.276 136.933 97.2344C137.152 97.1823 137.422 97.1042 137.745 97C138.079 96.8958 138.329 96.75 138.495 96.5625C138.662 96.3646 138.75 96.1302 138.761 95.8594C138.803 94.8281 138.823 92.5208 138.823 88.9375C138.823 87.2812 138.818 85.026 138.808 82.1719C138.797 79.3177 138.792 77.5625 138.792 76.9062C138.198 76.5625 137.198 76.349 135.792 76.2656C135.74 76.1302 135.714 76.0052 135.714 75.8906C135.714 75.7865 135.74 75.6667 135.792 75.5312ZM162.933 75.0312C164.693 75.0938 166.506 75.125 168.37 75.125C170.245 75.125 172.058 75.0938 173.808 75.0312C173.849 75.1979 173.87 75.3125 173.87 75.375C173.87 75.4479 173.849 75.5781 173.808 75.7656C173.495 75.7969 173.245 75.8229 173.058 75.8438C172.87 75.8646 172.61 75.901 172.277 75.9531C171.954 76.0052 171.688 76.0677 171.48 76.1406C171.282 76.2031 171.073 76.2865 170.855 76.3906C170.636 76.4948 170.469 76.6198 170.355 76.7656C170.25 76.9115 170.198 77.0781 170.198 77.2656C170.157 78.651 170.136 82.4583 170.136 88.6875C170.136 91.6562 170.631 93.8125 171.62 95.1562C172.62 96.5 174.313 97.1719 176.698 97.1719C179.105 97.1719 180.959 96.4427 182.261 94.9844C183.563 93.5156 184.214 91.4167 184.214 88.6875C184.214 83.7188 184.183 79.9844 184.12 77.4844C184.099 76.5469 182.948 75.974 180.667 75.7656C180.625 75.5365 180.605 75.3958 180.605 75.3438C180.605 75.2604 180.625 75.1562 180.667 75.0312C182.323 75.0938 183.803 75.125 185.105 75.125C185.938 75.125 187.339 75.0938 189.308 75.0312C189.349 75.1562 189.37 75.2604 189.37 75.3438C189.37 75.5104 189.349 75.651 189.308 75.7656C187.047 75.974 185.891 76.5469 185.839 77.4844C185.735 79.9635 185.683 83.6979 185.683 88.6875C185.683 90.2083 185.485 91.5677 185.089 92.7656C184.693 93.9531 184.188 94.9062 183.573 95.625C182.959 96.3438 182.24 96.9375 181.417 97.4062C180.605 97.875 179.818 98.1979 179.058 98.375C178.297 98.5521 177.532 98.6406 176.761 98.6406C175.73 98.6406 174.803 98.5833 173.98 98.4688C173.157 98.3542 172.355 98.1615 171.573 97.8906C170.792 97.6094 170.115 97.224 169.542 96.7344C168.969 96.2344 168.464 95.625 168.027 94.9062C167.589 94.1875 167.261 93.3073 167.042 92.2656C166.823 91.224 166.714 90.0312 166.714 88.6875V86.125C166.714 82.6354 166.657 79.6823 166.542 77.2656C166.532 76.9948 166.412 76.7656 166.183 76.5781C165.954 76.3802 165.62 76.2292 165.183 76.125C164.756 76.0208 164.391 75.9479 164.089 75.9062C163.797 75.8542 163.412 75.8073 162.933 75.7656C162.891 75.5781 162.87 75.4479 162.87 75.375C162.87 75.3125 162.891 75.1979 162.933 75.0312ZM197.089 98.4531C196.579 98.4531 196.115 98.4115 195.698 98.3281C195.292 98.2448 194.974 98.1562 194.745 98.0625C194.527 97.9688 194.23 97.8281 193.855 97.6406C193.448 97.6406 192.849 97.7917 192.058 98.0938C191.922 98.0104 191.829 97.9167 191.777 97.8125C191.829 97.6458 191.891 97.0781 191.964 96.1094C192.047 95.1406 192.089 94.276 192.089 93.5156C192.224 93.4531 192.469 93.4219 192.823 93.4219C193.011 94.026 193.204 94.5417 193.402 94.9688C193.61 95.3958 193.87 95.8125 194.183 96.2188C194.506 96.6146 194.891 96.9167 195.339 97.125C195.797 97.3229 196.318 97.4219 196.902 97.4219C197.808 97.4219 198.516 97.1875 199.027 96.7188C199.547 96.25 199.808 95.7188 199.808 95.125C199.808 94.6771 199.735 94.2969 199.589 93.9844C199.443 93.6719 199.115 93.3438 198.605 93C198.105 92.6458 197.386 92.2969 196.448 91.9531C195.865 91.7448 195.37 91.5521 194.964 91.375C194.558 91.1979 194.136 90.9792 193.698 90.7188C193.271 90.4583 192.928 90.1927 192.667 89.9219C192.407 89.6406 192.193 89.3073 192.027 88.9219C191.86 88.5365 191.777 88.1146 191.777 87.6562C191.777 87.3229 191.813 86.9948 191.886 86.6719C191.969 86.3385 192.12 85.9948 192.339 85.6406C192.568 85.2865 192.849 84.9792 193.183 84.7188C193.527 84.4479 193.98 84.2292 194.542 84.0625C195.115 83.8854 195.761 83.7969 196.48 83.7969C196.771 83.7969 197.027 83.8125 197.245 83.8438C197.474 83.875 197.745 83.9323 198.058 84.0156C198.381 84.0885 198.558 84.1302 198.589 84.1406C198.818 84.0885 199.053 84.0208 199.292 83.9375C199.542 83.8542 199.683 83.8073 199.714 83.7969H200.12C200.37 85.2969 200.693 86.5729 201.089 87.625C200.964 87.7604 200.761 87.8281 200.48 87.8281C199.615 86.7865 198.875 86.026 198.261 85.5469C197.657 85.0573 196.969 84.8125 196.198 84.8125C195.594 84.8125 195.063 84.9479 194.605 85.2188C194.146 85.4896 193.917 85.901 193.917 86.4531C193.917 87.151 194.193 87.6979 194.745 88.0938C195.308 88.4896 196.344 88.9948 197.855 89.6094C198.553 89.8906 199.099 90.125 199.495 90.3125C199.902 90.5 200.308 90.724 200.714 90.9844C201.12 91.2448 201.417 91.5156 201.605 91.7969C201.803 92.0677 201.964 92.3958 202.089 92.7812C202.214 93.1667 202.277 93.6146 202.277 94.125C202.277 95.2292 201.766 96.2292 200.745 97.125C199.735 98.0104 198.516 98.4531 197.089 98.4531Z" fill="white"/>
<path d="M40.9183 115.398C40.9964 115.341 41.0797 115.305 41.1683 115.289L45.4417 125.961C45.4938 126.091 45.5797 126.203 45.6995 126.297C45.8193 126.385 45.9678 126.456 46.1449 126.508C46.3271 126.555 46.4834 126.591 46.6136 126.617C46.749 126.638 46.9131 126.659 47.1058 126.68C47.1266 126.763 47.137 126.833 47.137 126.891C47.137 126.953 47.1266 127.01 47.1058 127.062C45.9808 127.021 45.1396 127 44.5824 127C43.9782 127 43.1032 127.021 41.9574 127.062C41.9365 127 41.9261 126.938 41.9261 126.875C41.9261 126.807 41.9365 126.742 41.9574 126.68C43.0094 126.565 43.5355 126.367 43.5355 126.086C43.5355 125.997 43.5251 125.906 43.5042 125.812L42.3714 122.906C42.0277 122.896 41.5641 122.891 40.9808 122.891C40.7047 122.891 39.9886 122.901 38.8324 122.922L37.637 125.961V126.055C37.637 126.107 37.6449 126.156 37.6605 126.203C37.6813 126.25 37.7126 126.292 37.7542 126.328C37.8011 126.365 37.8454 126.396 37.887 126.422C37.9287 126.448 37.986 126.474 38.0589 126.5C38.137 126.521 38.2021 126.539 38.2542 126.555C38.3115 126.565 38.387 126.578 38.4808 126.594C38.5797 126.609 38.6553 126.622 38.7074 126.633C38.7594 126.638 38.835 126.646 38.9339 126.656C39.0381 126.667 39.111 126.674 39.1527 126.68C39.1735 126.763 39.1839 126.833 39.1839 126.891C39.1839 126.922 39.1735 126.979 39.1527 127.062C37.986 127.021 37.3297 127 37.1839 127C36.9027 127 36.1787 127.021 35.012 127.062C34.9912 127 34.9808 126.938 34.9808 126.875C34.9808 126.807 34.9912 126.742 35.012 126.68C36.0954 126.555 36.7126 126.289 36.8636 125.883L40.223 117.414L40.0511 116.953C40.348 116.755 40.5537 116.542 40.6683 116.312C40.7881 116.083 40.8714 115.779 40.9183 115.398ZM40.9808 122.281C41.46 122.281 41.8376 122.276 42.1136 122.266L40.6292 118.422H40.598L39.1058 122.25C39.5954 122.271 40.2204 122.281 40.9808 122.281ZM47.973 115.766C48.9626 115.672 49.8402 115.458 50.6058 115.125C50.7464 115.182 50.8376 115.253 50.8792 115.336C50.8792 121.237 50.9001 124.768 50.9417 125.93C50.9469 126.039 50.9782 126.138 51.0355 126.227C51.098 126.31 51.1657 126.378 51.2386 126.43C51.3115 126.477 51.4105 126.521 51.5355 126.562C51.6605 126.599 51.7568 126.625 51.8245 126.641C51.8975 126.651 51.9938 126.664 52.1136 126.68C52.1449 126.742 52.1605 126.807 52.1605 126.875C52.1605 126.943 52.1449 127 52.1136 127.047C51.4261 127.016 50.7594 127 50.1136 127C49.4782 127 48.8167 127.016 48.1292 127.047C48.1084 126.964 48.098 126.906 48.098 126.875C48.098 126.849 48.1084 126.784 48.1292 126.68C48.3011 126.659 48.4391 126.638 48.5433 126.617C48.6527 126.591 48.7881 126.552 48.9495 126.5C49.1162 126.448 49.2412 126.375 49.3245 126.281C49.4079 126.182 49.4521 126.065 49.4574 125.93C49.4782 125.414 49.4886 124.26 49.4886 122.469C49.4886 121.641 49.486 120.513 49.4808 119.086C49.4756 117.659 49.473 116.781 49.473 116.453C49.1761 116.281 48.6761 116.174 47.973 116.133C47.9469 116.065 47.9339 116.003 47.9339 115.945C47.9339 115.893 47.9469 115.833 47.973 115.766ZM53.1605 115.766C54.1501 115.672 55.0277 115.458 55.7933 115.125C55.9339 115.182 56.0251 115.253 56.0667 115.336C56.0667 121.237 56.0876 124.768 56.1292 125.93C56.1344 126.039 56.1657 126.138 56.223 126.227C56.2855 126.31 56.3532 126.378 56.4261 126.43C56.499 126.477 56.598 126.521 56.723 126.562C56.848 126.599 56.9443 126.625 57.012 126.641C57.085 126.651 57.1813 126.664 57.3011 126.68C57.3324 126.742 57.348 126.807 57.348 126.875C57.348 126.943 57.3324 127 57.3011 127.047C56.6136 127.016 55.9469 127 55.3011 127C54.6657 127 54.0042 127.016 53.3167 127.047C53.2959 126.964 53.2855 126.906 53.2855 126.875C53.2855 126.849 53.2959 126.784 53.3167 126.68C53.4886 126.659 53.6266 126.638 53.7308 126.617C53.8402 126.591 53.9756 126.552 54.137 126.5C54.3037 126.448 54.4287 126.375 54.512 126.281C54.5954 126.182 54.6396 126.065 54.6449 125.93C54.6657 125.414 54.6761 124.26 54.6761 122.469C54.6761 121.641 54.6735 120.513 54.6683 119.086C54.6631 117.659 54.6605 116.781 54.6605 116.453C54.3636 116.281 53.8636 116.174 53.1605 116.133C53.1344 116.065 53.1214 116.003 53.1214 115.945C53.1214 115.893 53.1344 115.833 53.1605 115.766ZM62.598 115.516C63.723 115.557 64.6292 115.578 65.3167 115.578C65.5771 115.578 65.9964 115.568 66.5745 115.547C67.1527 115.526 67.598 115.516 67.9105 115.516C69.0667 115.516 69.9756 115.807 70.637 116.391C71.3037 116.974 71.637 117.732 71.637 118.664C71.637 119.414 71.4157 120.086 70.973 120.68C70.5303 121.268 69.9261 121.69 69.1605 121.945C69.5094 122.57 69.9886 123.279 70.598 124.07C71.1865 124.857 71.7464 125.474 72.2777 125.922C72.8141 126.37 73.3896 126.622 74.0042 126.68C74.0251 126.763 74.0355 126.828 74.0355 126.875C74.0355 126.927 74.0251 126.984 74.0042 127.047C73.6917 127.031 73.3584 127.021 73.0042 127.016C72.6501 127.01 72.2542 127.008 71.8167 127.008C71.3844 127.008 71.0511 127.005 70.8167 127C69.4157 125.37 68.2907 123.766 67.4417 122.188C67.0615 122.188 66.624 122.128 66.1292 122.008C66.1292 123.018 66.1579 124.326 66.2152 125.93C66.2204 126.065 66.2803 126.182 66.3949 126.281C66.5094 126.375 66.6735 126.448 66.887 126.5C67.1058 126.552 67.2881 126.591 67.4339 126.617C67.585 126.638 67.7803 126.659 68.0199 126.68C68.0407 126.784 68.0511 126.854 68.0511 126.891C68.0511 126.932 68.0407 126.984 68.0199 127.047C67.1344 127.016 66.2282 127 65.3011 127C64.3636 127 63.4574 127.016 62.5824 127.047C62.5615 126.984 62.5511 126.932 62.5511 126.891C62.5511 126.802 62.5615 126.732 62.5824 126.68C62.7386 126.664 62.8636 126.651 62.9574 126.641C63.0511 126.63 63.1787 126.612 63.3402 126.586C63.5068 126.56 63.6396 126.531 63.7386 126.5C63.8428 126.464 63.9495 126.419 64.0589 126.367C64.1683 126.315 64.249 126.253 64.3011 126.18C64.3584 126.107 64.387 126.023 64.387 125.93C64.4495 124.299 64.4808 122.656 64.4808 121C64.4808 119.312 64.4547 117.857 64.4027 116.633C64.3975 116.497 64.3376 116.383 64.223 116.289C64.1084 116.19 63.9417 116.115 63.723 116.062C63.5094 116.01 63.3271 115.974 63.1761 115.953C63.0303 115.927 62.8376 115.904 62.598 115.883C62.5771 115.789 62.5667 115.724 62.5667 115.688C62.5667 115.656 62.5771 115.599 62.598 115.516ZM66.2308 116.055H66.2152C66.1579 117.977 66.1292 119.763 66.1292 121.414C66.4938 121.534 66.8636 121.594 67.2386 121.594C67.5824 121.594 67.8896 121.536 68.1605 121.422C68.4365 121.302 68.6631 121.146 68.8402 120.953C69.0172 120.76 69.1631 120.534 69.2777 120.273C69.3975 120.013 69.4808 119.75 69.5277 119.484C69.5797 119.219 69.6058 118.945 69.6058 118.664C69.6058 117.888 69.3922 117.255 68.9652 116.766C68.5433 116.271 67.9417 116.023 67.1605 116.023C66.7751 116.023 66.4652 116.034 66.2308 116.055ZM74.7074 120.57C75.7178 120.466 76.598 120.253 77.348 119.93C77.4782 119.982 77.5693 120.049 77.6214 120.133C77.6214 122.836 77.6422 124.768 77.6839 125.93C77.6891 126.065 77.7282 126.182 77.8011 126.281C77.8792 126.375 77.9886 126.448 78.1292 126.5C78.2699 126.552 78.387 126.591 78.4808 126.617C78.5745 126.638 78.6969 126.659 78.848 126.68C78.8792 126.742 78.8949 126.807 78.8949 126.875C78.8949 126.943 78.8792 127 78.848 127.047C78.1605 127.016 77.4938 127 76.848 127C76.2126 127 75.5511 127.016 74.8636 127.047C74.8428 126.964 74.8324 126.906 74.8324 126.875C74.8324 126.849 74.8428 126.784 74.8636 126.68C75.0355 126.659 75.1761 126.638 75.2855 126.617C75.3949 126.591 75.5303 126.552 75.6917 126.5C75.8532 126.448 75.9756 126.375 76.0589 126.281C76.1422 126.182 76.1865 126.065 76.1917 125.93C76.2126 125.414 76.223 124.789 76.223 124.055C76.223 123.81 76.2204 123.393 76.2152 122.805C76.21 122.216 76.2074 121.701 76.2074 121.258C75.9105 121.076 75.4105 120.969 74.7074 120.938C74.6865 120.854 74.6761 120.789 74.6761 120.742C74.6761 120.711 74.6865 120.654 74.7074 120.57ZM75.9339 117.305C75.9339 117.039 76.0277 116.812 76.2152 116.625C76.4079 116.438 76.6344 116.344 76.8949 116.344C77.1605 116.344 77.387 116.438 77.5745 116.625C77.762 116.812 77.8558 117.039 77.8558 117.305C77.8558 117.565 77.762 117.792 77.5745 117.984C77.387 118.172 77.1605 118.266 76.8949 118.266C76.6344 118.266 76.4079 118.172 76.2152 117.984C76.0277 117.792 75.9339 117.565 75.9339 117.305ZM85.973 122.344C85.973 123.167 85.7074 123.826 85.1761 124.32C84.6449 124.815 83.999 125.062 83.2386 125.062C82.8792 125.062 82.5433 125.036 82.2308 124.984C81.9183 125.182 81.762 125.427 81.762 125.719C81.762 125.953 81.9079 126.125 82.1995 126.234C82.4964 126.339 83.0016 126.391 83.7152 126.391C83.8297 126.391 84.0459 126.385 84.3636 126.375C84.6813 126.365 84.9339 126.359 85.1214 126.359C86.5745 126.359 87.3011 126.956 87.3011 128.148C87.3011 128.487 87.1995 128.844 86.9964 129.219C86.7985 129.594 86.5251 129.943 86.1761 130.266C85.8324 130.594 85.3975 130.865 84.8714 131.078C84.3506 131.292 83.8011 131.398 83.223 131.398C82.3115 131.398 81.6214 131.229 81.1527 130.891C80.6839 130.557 80.4495 130.141 80.4495 129.641C80.4495 129.292 80.5771 128.943 80.8324 128.594C81.0928 128.245 81.4782 127.932 81.9886 127.656C80.9834 127.51 80.4808 127.12 80.4808 126.484C80.4808 126.182 80.5928 125.898 80.8167 125.633C81.0459 125.362 81.3558 125.081 81.7464 124.789C81.2152 124.492 80.848 124.151 80.6449 123.766C80.4417 123.38 80.3402 122.943 80.3402 122.453C80.3402 122.151 80.4105 121.849 80.5511 121.547C80.6969 121.24 80.8922 120.966 81.137 120.727C81.3818 120.482 81.6813 120.284 82.0355 120.133C82.3949 119.977 82.7725 119.898 83.1683 119.898C83.5329 119.898 83.8324 119.927 84.0667 119.984C84.3011 120.036 84.5928 120.13 84.9417 120.266C85.2907 120.401 85.6188 120.513 85.9261 120.602C85.9521 120.398 86.0329 120.227 86.1683 120.086C86.3037 119.94 86.4782 119.867 86.6917 119.867C86.8844 119.867 87.0563 119.948 87.2074 120.109C87.3636 120.271 87.4417 120.456 87.4417 120.664C87.4417 120.878 87.374 121.062 87.2386 121.219C87.1084 121.37 86.9417 121.445 86.7386 121.445C86.6188 121.445 86.499 121.424 86.3792 121.383C86.2594 121.341 86.1605 121.299 86.0824 121.258C86.0094 121.211 85.9001 121.138 85.7542 121.039C85.6084 120.935 85.4938 120.857 85.4105 120.805L85.3792 120.844C85.5719 121.016 85.7178 121.237 85.8167 121.508C85.9209 121.773 85.973 122.052 85.973 122.344ZM81.8949 129.078C81.8949 129.286 81.9261 129.484 81.9886 129.672C82.0511 129.859 82.1501 130.036 82.2855 130.203C82.4209 130.37 82.611 130.5 82.8558 130.594C83.1058 130.693 83.3975 130.742 83.7308 130.742C84.1579 130.742 84.5355 130.674 84.8636 130.539C85.1969 130.409 85.4495 130.245 85.6214 130.047C85.7933 129.849 85.9209 129.656 86.0042 129.469C86.0876 129.286 86.1292 129.12 86.1292 128.969C86.1292 128.76 86.111 128.583 86.0745 128.438C86.0381 128.297 85.9678 128.159 85.8636 128.023C85.7646 127.893 85.6084 127.794 85.3949 127.727C85.1813 127.659 84.9105 127.625 84.5824 127.625C84.4053 127.625 84.0745 127.635 83.5902 127.656C83.1058 127.677 82.7959 127.688 82.6605 127.688C82.4209 127.854 82.2334 128.06 82.098 128.305C81.9626 128.549 81.8949 128.807 81.8949 129.078ZM81.9261 122.469C81.9261 123.859 82.3402 124.555 83.1683 124.555C83.5641 124.555 83.8662 124.383 84.0745 124.039C84.2829 123.695 84.387 123.125 84.387 122.328C84.387 121.964 84.3454 121.648 84.262 121.383C84.1787 121.112 84.0693 120.911 83.9339 120.781C83.8037 120.646 83.6709 120.549 83.5355 120.492C83.4053 120.435 83.2725 120.406 83.137 120.406C82.7881 120.406 82.499 120.57 82.2699 120.898C82.0407 121.227 81.9261 121.75 81.9261 122.469ZM88.1292 115.766C89.1188 115.672 89.9964 115.458 90.762 115.125C90.9027 115.182 90.9938 115.253 91.0355 115.336V121.336C91.5511 120.898 92.0355 120.549 92.4886 120.289C92.9417 120.029 93.4027 119.898 93.8714 119.898C94.46 119.898 94.8792 120.065 95.1292 120.398C95.3792 120.732 95.5094 121.253 95.5199 121.961L95.5824 125.93C95.5876 126.065 95.6266 126.182 95.6995 126.281C95.7777 126.375 95.887 126.448 96.0277 126.5C96.1683 126.552 96.2855 126.591 96.3792 126.617C96.473 126.638 96.5954 126.659 96.7464 126.68C96.7725 126.81 96.7855 126.88 96.7855 126.891C96.7855 126.917 96.7725 126.969 96.7464 127.047C96.0745 127.016 95.4626 127 94.9105 127C94.3532 127 93.7386 127.016 93.0667 127.047C93.0459 126.964 93.0355 126.901 93.0355 126.859C93.0355 126.823 93.0459 126.763 93.0667 126.68C93.2021 126.659 93.3141 126.638 93.4027 126.617C93.4964 126.591 93.6006 126.552 93.7152 126.5C93.835 126.448 93.9235 126.375 93.9808 126.281C94.0433 126.182 94.0745 126.065 94.0745 125.93L94.0902 122.219C94.0902 121.276 93.8089 120.805 93.2464 120.805C92.7204 120.805 91.9834 121.146 91.0355 121.828C91.0563 123.995 91.0771 125.362 91.098 125.93C91.1032 126.039 91.1344 126.138 91.1917 126.227C91.2542 126.31 91.3219 126.378 91.3949 126.43C91.4678 126.477 91.5667 126.521 91.6917 126.562C91.8167 126.599 91.9131 126.625 91.9808 126.641C92.0537 126.651 92.1501 126.664 92.2699 126.68C92.3011 126.742 92.3167 126.807 92.3167 126.875C92.3167 126.943 92.3011 127 92.2699 127.047C91.5824 127.016 90.9157 127 90.2699 127C89.6344 127 88.973 127.016 88.2855 127.047C88.2646 126.964 88.2542 126.906 88.2542 126.875C88.2542 126.849 88.2646 126.784 88.2855 126.68C88.4574 126.659 88.5954 126.638 88.6995 126.617C88.8089 126.591 88.9443 126.552 89.1058 126.5C89.2725 126.448 89.3975 126.375 89.4808 126.281C89.5641 126.182 89.6084 126.065 89.6136 125.93C89.6344 125.414 89.6449 124.26 89.6449 122.469C89.6449 121.641 89.6422 120.513 89.637 119.086C89.6318 117.659 89.6292 116.781 89.6292 116.453C89.3324 116.281 88.8324 116.174 88.1292 116.133C88.1032 116.065 88.0902 116.003 88.0902 115.945C88.0902 115.893 88.1032 115.833 88.1292 115.766ZM100.004 118.57C100.056 118.549 100.116 118.539 100.184 118.539C100.252 118.539 100.322 118.549 100.395 118.57V120.281H102.762C102.793 120.359 102.809 120.456 102.809 120.57C102.809 120.669 102.793 120.76 102.762 120.844H100.395V125.016C100.395 125.839 100.772 126.25 101.528 126.25C101.814 126.25 102.059 126.195 102.262 126.086C102.47 125.977 102.7 125.812 102.95 125.594C103.08 125.609 103.166 125.672 103.207 125.781C102.978 126.193 102.64 126.536 102.192 126.812C101.744 127.089 101.252 127.227 100.715 127.227C99.4547 127.227 98.8245 126.464 98.8245 124.938V120.844H97.8636C97.8428 120.75 97.8324 120.69 97.8324 120.664C97.8324 120.659 97.8428 120.599 97.8636 120.484C98.1136 120.359 98.3037 120.258 98.4339 120.18C98.5693 120.096 98.7386 119.979 98.9417 119.828C99.1501 119.677 99.3376 119.5 99.5042 119.297C99.6761 119.089 99.8428 118.846 100.004 118.57ZM107.075 127.227C106.819 127.227 106.588 127.206 106.379 127.164C106.176 127.122 106.017 127.078 105.903 127.031C105.793 126.984 105.645 126.914 105.457 126.82C105.254 126.82 104.955 126.896 104.559 127.047C104.491 127.005 104.444 126.958 104.418 126.906C104.444 126.823 104.476 126.539 104.512 126.055C104.554 125.57 104.575 125.138 104.575 124.758C104.642 124.727 104.765 124.711 104.942 124.711C105.035 125.013 105.132 125.271 105.231 125.484C105.335 125.698 105.465 125.906 105.621 126.109C105.783 126.307 105.976 126.458 106.2 126.562C106.429 126.661 106.689 126.711 106.981 126.711C107.434 126.711 107.788 126.594 108.043 126.359C108.304 126.125 108.434 125.859 108.434 125.562C108.434 125.339 108.397 125.148 108.325 124.992C108.252 124.836 108.088 124.672 107.832 124.5C107.582 124.323 107.223 124.148 106.754 123.977C106.463 123.872 106.215 123.776 106.012 123.688C105.809 123.599 105.598 123.49 105.379 123.359C105.166 123.229 104.994 123.096 104.864 122.961C104.733 122.82 104.627 122.654 104.543 122.461C104.46 122.268 104.418 122.057 104.418 121.828C104.418 121.661 104.437 121.497 104.473 121.336C104.515 121.169 104.59 120.997 104.7 120.82C104.814 120.643 104.955 120.49 105.121 120.359C105.293 120.224 105.52 120.115 105.801 120.031C106.088 119.943 106.41 119.898 106.77 119.898C106.916 119.898 107.043 119.906 107.153 119.922C107.267 119.938 107.403 119.966 107.559 120.008C107.72 120.044 107.809 120.065 107.825 120.07C107.939 120.044 108.056 120.01 108.176 119.969C108.301 119.927 108.371 119.904 108.387 119.898H108.59C108.715 120.648 108.877 121.286 109.075 121.812C109.012 121.88 108.91 121.914 108.77 121.914C108.338 121.393 107.968 121.013 107.66 120.773C107.358 120.529 107.015 120.406 106.629 120.406C106.327 120.406 106.062 120.474 105.832 120.609C105.603 120.745 105.489 120.951 105.489 121.227C105.489 121.576 105.627 121.849 105.903 122.047C106.184 122.245 106.702 122.497 107.457 122.805C107.806 122.945 108.08 123.062 108.278 123.156C108.481 123.25 108.684 123.362 108.887 123.492C109.09 123.622 109.239 123.758 109.332 123.898C109.431 124.034 109.512 124.198 109.575 124.391C109.637 124.583 109.668 124.807 109.668 125.062C109.668 125.615 109.413 126.115 108.903 126.562C108.397 127.005 107.788 127.227 107.075 127.227ZM115.239 115.516C116.364 115.557 117.27 115.578 117.957 115.578C118.218 115.578 118.637 115.568 119.215 115.547C119.793 115.526 120.239 115.516 120.551 115.516C121.707 115.516 122.616 115.807 123.278 116.391C123.944 116.974 124.278 117.732 124.278 118.664C124.278 119.414 124.056 120.086 123.614 120.68C123.171 121.268 122.567 121.69 121.801 121.945C122.15 122.57 122.629 123.279 123.239 124.07C123.827 124.857 124.387 125.474 124.918 125.922C125.455 126.37 126.03 126.622 126.645 126.68C126.666 126.763 126.676 126.828 126.676 126.875C126.676 126.927 126.666 126.984 126.645 127.047C126.332 127.031 125.999 127.021 125.645 127.016C125.291 127.01 124.895 127.008 124.457 127.008C124.025 127.008 123.692 127.005 123.457 127C122.056 125.37 120.931 123.766 120.082 122.188C119.702 122.188 119.265 122.128 118.77 122.008C118.77 123.018 118.798 124.326 118.856 125.93C118.861 126.065 118.921 126.182 119.035 126.281C119.15 126.375 119.314 126.448 119.528 126.5C119.746 126.552 119.929 126.591 120.075 126.617C120.226 126.638 120.421 126.659 120.66 126.68C120.681 126.784 120.692 126.854 120.692 126.891C120.692 126.932 120.681 126.984 120.66 127.047C119.775 127.016 118.869 127 117.942 127C117.004 127 116.098 127.016 115.223 127.047C115.202 126.984 115.192 126.932 115.192 126.891C115.192 126.802 115.202 126.732 115.223 126.68C115.379 126.664 115.504 126.651 115.598 126.641C115.692 126.63 115.819 126.612 115.981 126.586C116.147 126.56 116.28 126.531 116.379 126.5C116.483 126.464 116.59 126.419 116.7 126.367C116.809 126.315 116.89 126.253 116.942 126.18C116.999 126.107 117.028 126.023 117.028 125.93C117.09 124.299 117.121 122.656 117.121 121C117.121 119.312 117.095 117.857 117.043 116.633C117.038 116.497 116.978 116.383 116.864 116.289C116.749 116.19 116.582 116.115 116.364 116.062C116.15 116.01 115.968 115.974 115.817 115.953C115.671 115.927 115.478 115.904 115.239 115.883C115.218 115.789 115.207 115.724 115.207 115.688C115.207 115.656 115.218 115.599 115.239 115.516ZM118.871 116.055H118.856C118.798 117.977 118.77 119.763 118.77 121.414C119.134 121.534 119.504 121.594 119.879 121.594C120.223 121.594 120.53 121.536 120.801 121.422C121.077 121.302 121.304 121.146 121.481 120.953C121.658 120.76 121.804 120.534 121.918 120.273C122.038 120.013 122.121 119.75 122.168 119.484C122.22 119.219 122.246 118.945 122.246 118.664C122.246 117.888 122.033 117.255 121.606 116.766C121.184 116.271 120.582 116.023 119.801 116.023C119.416 116.023 119.106 116.034 118.871 116.055ZM133.473 122.859H129.215C129.194 123.172 129.184 123.448 129.184 123.688C129.2 124.464 129.426 125.086 129.864 125.555C130.301 126.018 130.887 126.25 131.621 126.25C131.819 126.25 132.004 126.229 132.176 126.188C132.348 126.141 132.489 126.089 132.598 126.031C132.713 125.974 132.83 125.891 132.95 125.781C133.069 125.672 133.155 125.586 133.207 125.523C133.265 125.456 133.34 125.357 133.434 125.227C133.528 125.091 133.59 125.005 133.621 124.969C133.746 124.995 133.848 125.052 133.926 125.141C133.666 125.839 133.262 126.362 132.715 126.711C132.168 127.055 131.575 127.227 130.934 127.227C130.616 127.227 130.306 127.185 130.004 127.102C129.707 127.023 129.418 126.893 129.137 126.711C128.856 126.529 128.611 126.305 128.403 126.039C128.194 125.768 128.028 125.432 127.903 125.031C127.778 124.625 127.715 124.177 127.715 123.688C127.715 122.589 128.051 121.682 128.723 120.969C129.395 120.255 130.22 119.898 131.2 119.898C131.632 119.898 132.007 119.961 132.325 120.086C132.647 120.206 132.897 120.37 133.075 120.578C133.257 120.786 133.39 121.016 133.473 121.266C133.562 121.51 133.606 121.773 133.606 122.055C133.606 122.315 133.562 122.583 133.473 122.859ZM131.012 120.406C130.653 120.406 130.312 120.565 129.989 120.883C129.671 121.201 129.442 121.682 129.301 122.328H132.114C132.166 122.13 132.192 121.958 132.192 121.812C132.192 121.406 132.098 121.07 131.91 120.805C131.723 120.539 131.423 120.406 131.012 120.406ZM138.184 127.227C137.929 127.227 137.697 127.206 137.489 127.164C137.285 127.122 137.127 127.078 137.012 127.031C136.903 126.984 136.754 126.914 136.567 126.82C136.364 126.82 136.064 126.896 135.668 127.047C135.601 127.005 135.554 126.958 135.528 126.906C135.554 126.823 135.585 126.539 135.621 126.055C135.663 125.57 135.684 125.138 135.684 124.758C135.752 124.727 135.874 124.711 136.051 124.711C136.145 125.013 136.241 125.271 136.34 125.484C136.444 125.698 136.575 125.906 136.731 126.109C136.892 126.307 137.085 126.458 137.309 126.562C137.538 126.661 137.798 126.711 138.09 126.711C138.543 126.711 138.897 126.594 139.153 126.359C139.413 126.125 139.543 125.859 139.543 125.562C139.543 125.339 139.507 125.148 139.434 124.992C139.361 124.836 139.197 124.672 138.942 124.5C138.692 124.323 138.332 124.148 137.864 123.977C137.572 123.872 137.325 123.776 137.121 123.688C136.918 123.599 136.707 123.49 136.489 123.359C136.275 123.229 136.103 123.096 135.973 122.961C135.843 122.82 135.736 122.654 135.653 122.461C135.569 122.268 135.528 122.057 135.528 121.828C135.528 121.661 135.546 121.497 135.582 121.336C135.624 121.169 135.7 120.997 135.809 120.82C135.923 120.643 136.064 120.49 136.231 120.359C136.403 120.224 136.629 120.115 136.91 120.031C137.197 119.943 137.52 119.898 137.879 119.898C138.025 119.898 138.153 119.906 138.262 119.922C138.377 119.938 138.512 119.966 138.668 120.008C138.83 120.044 138.918 120.065 138.934 120.07C139.048 120.044 139.166 120.01 139.285 119.969C139.41 119.927 139.481 119.904 139.496 119.898H139.7C139.825 120.648 139.986 121.286 140.184 121.812C140.121 121.88 140.02 121.914 139.879 121.914C139.447 121.393 139.077 121.013 138.77 120.773C138.468 120.529 138.124 120.406 137.739 120.406C137.437 120.406 137.171 120.474 136.942 120.609C136.713 120.745 136.598 120.951 136.598 121.227C136.598 121.576 136.736 121.849 137.012 122.047C137.293 122.245 137.812 122.497 138.567 122.805C138.916 122.945 139.189 123.062 139.387 123.156C139.59 123.25 139.793 123.362 139.996 123.492C140.2 123.622 140.348 123.758 140.442 123.898C140.541 124.034 140.621 124.198 140.684 124.391C140.746 124.583 140.778 124.807 140.778 125.062C140.778 125.615 140.522 126.115 140.012 126.562C139.507 127.005 138.897 127.227 138.184 127.227ZM148.301 122.859H144.043C144.022 123.172 144.012 123.448 144.012 123.688C144.028 124.464 144.254 125.086 144.692 125.555C145.129 126.018 145.715 126.25 146.45 126.25C146.647 126.25 146.832 126.229 147.004 126.188C147.176 126.141 147.317 126.089 147.426 126.031C147.541 125.974 147.658 125.891 147.778 125.781C147.897 125.672 147.983 125.586 148.035 125.523C148.093 125.456 148.168 125.357 148.262 125.227C148.356 125.091 148.418 125.005 148.45 124.969C148.575 124.995 148.676 125.052 148.754 125.141C148.494 125.839 148.09 126.362 147.543 126.711C146.996 127.055 146.403 127.227 145.762 127.227C145.444 127.227 145.134 127.185 144.832 127.102C144.535 127.023 144.246 126.893 143.965 126.711C143.684 126.529 143.439 126.305 143.231 126.039C143.022 125.768 142.856 125.432 142.731 125.031C142.606 124.625 142.543 124.177 142.543 123.688C142.543 122.589 142.879 121.682 143.551 120.969C144.223 120.255 145.048 119.898 146.028 119.898C146.46 119.898 146.835 119.961 147.153 120.086C147.476 120.206 147.726 120.37 147.903 120.578C148.085 120.786 148.218 121.016 148.301 121.266C148.39 121.51 148.434 121.773 148.434 122.055C148.434 122.315 148.39 122.583 148.301 122.859ZM145.84 120.406C145.481 120.406 145.14 120.565 144.817 120.883C144.499 121.201 144.27 121.682 144.129 122.328H146.942C146.994 122.13 147.02 121.958 147.02 121.812C147.02 121.406 146.926 121.07 146.739 120.805C146.551 120.539 146.252 120.406 145.84 120.406ZM149.989 120.57C150.999 120.466 151.879 120.253 152.629 119.93C152.759 119.982 152.851 120.049 152.903 120.133V121.477C153.095 121.112 153.382 120.758 153.762 120.414C154.147 120.07 154.548 119.898 154.965 119.898C155.278 119.898 155.53 119.992 155.723 120.18C155.921 120.362 156.02 120.615 156.02 120.938C156.02 121.245 155.929 121.484 155.746 121.656C155.564 121.828 155.335 121.914 155.059 121.914C154.804 121.914 154.593 121.833 154.426 121.672C154.265 121.505 154.176 121.286 154.16 121.016C153.942 121.109 153.692 121.318 153.41 121.641C153.134 121.964 152.965 122.284 152.903 122.602C152.903 123.763 152.923 124.872 152.965 125.93C152.97 126.065 153.02 126.182 153.114 126.281C153.207 126.375 153.345 126.448 153.528 126.5C153.71 126.552 153.861 126.591 153.981 126.617C154.101 126.638 154.257 126.659 154.45 126.68C154.481 126.742 154.496 126.807 154.496 126.875C154.496 126.927 154.481 126.984 154.45 127.047C153.668 127.016 152.895 127 152.129 127C151.494 127 150.832 127.016 150.145 127.047C150.124 126.964 150.114 126.906 150.114 126.875C150.114 126.849 150.124 126.784 150.145 126.68C150.317 126.659 150.457 126.638 150.567 126.617C150.676 126.591 150.812 126.552 150.973 126.5C151.134 126.448 151.257 126.375 151.34 126.281C151.423 126.182 151.468 126.065 151.473 125.93C151.494 125.414 151.504 124.789 151.504 124.055C151.504 123.81 151.502 123.393 151.496 122.805C151.491 122.216 151.489 121.701 151.489 121.258C151.192 121.076 150.692 120.969 149.989 120.938C149.968 120.854 149.957 120.789 149.957 120.742C149.957 120.711 149.968 120.654 149.989 120.57ZM156.137 120.07C156.825 120.102 157.517 120.117 158.215 120.117C158.804 120.117 159.434 120.102 160.106 120.07C160.127 120.154 160.137 120.219 160.137 120.266C160.137 120.297 160.127 120.354 160.106 120.438C159.96 120.448 159.84 120.461 159.746 120.477C159.658 120.487 159.546 120.508 159.41 120.539C159.275 120.57 159.173 120.617 159.106 120.68C159.038 120.742 159.004 120.818 159.004 120.906C159.004 120.953 159.025 121.049 159.067 121.195L160.489 125.141H160.535L162.2 121.195C162.257 121.055 162.285 120.943 162.285 120.859C162.285 120.62 161.986 120.479 161.387 120.438C161.366 120.354 161.356 120.297 161.356 120.266C161.356 120.219 161.366 120.154 161.387 120.07C161.996 120.102 162.374 120.117 162.52 120.117C162.957 120.117 163.512 120.102 164.184 120.07C164.205 120.133 164.215 120.188 164.215 120.234C164.215 120.266 164.205 120.333 164.184 120.438C163.564 120.464 163.142 120.716 162.918 121.195L160.246 127.227H159.864L157.496 121.195C157.444 121.06 157.366 120.945 157.262 120.852C157.163 120.753 157.033 120.677 156.871 120.625C156.715 120.568 156.593 120.529 156.504 120.508C156.421 120.487 156.298 120.464 156.137 120.438C156.116 120.396 156.106 120.339 156.106 120.266C156.106 120.188 156.116 120.122 156.137 120.07ZM170.785 122.859H166.528C166.507 123.172 166.496 123.448 166.496 123.688C166.512 124.464 166.739 125.086 167.176 125.555C167.614 126.018 168.2 126.25 168.934 126.25C169.132 126.25 169.317 126.229 169.489 126.188C169.66 126.141 169.801 126.089 169.91 126.031C170.025 125.974 170.142 125.891 170.262 125.781C170.382 125.672 170.468 125.586 170.52 125.523C170.577 125.456 170.653 125.357 170.746 125.227C170.84 125.091 170.903 125.005 170.934 124.969C171.059 124.995 171.16 125.052 171.239 125.141C170.978 125.839 170.575 126.362 170.028 126.711C169.481 127.055 168.887 127.227 168.246 127.227C167.929 127.227 167.619 127.185 167.317 127.102C167.02 127.023 166.731 126.893 166.45 126.711C166.168 126.529 165.923 126.305 165.715 126.039C165.507 125.768 165.34 125.432 165.215 125.031C165.09 124.625 165.028 124.177 165.028 123.688C165.028 122.589 165.364 121.682 166.035 120.969C166.707 120.255 167.533 119.898 168.512 119.898C168.944 119.898 169.319 119.961 169.637 120.086C169.96 120.206 170.21 120.37 170.387 120.578C170.569 120.786 170.702 121.016 170.785 121.266C170.874 121.51 170.918 121.773 170.918 122.055C170.918 122.315 170.874 122.583 170.785 122.859ZM168.325 120.406C167.965 120.406 167.624 120.565 167.301 120.883C166.983 121.201 166.754 121.682 166.614 122.328H169.426C169.478 122.13 169.504 121.958 169.504 121.812C169.504 121.406 169.41 121.07 169.223 120.805C169.035 120.539 168.736 120.406 168.325 120.406ZM176.457 115.766C177.442 115.672 178.322 115.458 179.098 115.125C179.233 115.182 179.322 115.253 179.364 115.336C179.364 121.237 179.387 124.768 179.434 125.93C179.439 126.065 179.478 126.182 179.551 126.281C179.629 126.375 179.739 126.448 179.879 126.5C180.02 126.552 180.137 126.591 180.231 126.617C180.325 126.638 180.447 126.659 180.598 126.68C180.619 126.763 180.629 126.828 180.629 126.875C180.629 126.906 180.619 126.964 180.598 127.047C180.416 127.036 180.228 127.026 180.035 127.016C179.848 127.005 179.7 126.997 179.59 126.992C179.481 126.987 179.379 126.984 179.285 126.984C179.207 126.984 179.119 126.987 179.02 126.992C178.921 126.997 178.785 127.005 178.614 127.016C178.442 127.026 178.272 127.036 178.106 127.047C178.08 127.036 178.056 127.023 178.035 127.008C178.02 126.997 178.007 126.99 177.996 126.984C177.991 126.974 177.983 126.961 177.973 126.945C177.963 126.924 177.955 126.911 177.95 126.906C177.944 126.901 177.937 126.885 177.926 126.859C177.921 126.828 177.916 126.81 177.91 126.805C177.931 126.68 177.942 126.398 177.942 125.961C177.082 126.805 176.288 127.227 175.559 127.227C174.757 127.227 174.103 126.924 173.598 126.32C173.093 125.716 172.84 124.893 172.84 123.852C172.84 123.492 172.882 123.133 172.965 122.773C173.048 122.414 173.187 122.06 173.379 121.711C173.572 121.362 173.809 121.055 174.09 120.789C174.371 120.523 174.728 120.31 175.16 120.148C175.593 119.982 176.072 119.898 176.598 119.898C176.989 119.898 177.447 119.982 177.973 120.148C177.963 119.159 177.957 117.927 177.957 116.453C177.66 116.281 177.16 116.174 176.457 116.133C176.437 116.049 176.426 115.987 176.426 115.945C176.426 115.909 176.437 115.849 176.457 115.766ZM176.309 126.203C176.83 126.203 177.379 125.924 177.957 125.367C177.968 124.857 177.973 123.891 177.973 122.469V121.336C177.614 120.716 177.064 120.406 176.325 120.406C176.168 120.406 176.012 120.43 175.856 120.477C175.7 120.523 175.533 120.617 175.356 120.758C175.179 120.898 175.022 121.078 174.887 121.297C174.757 121.516 174.647 121.82 174.559 122.211C174.47 122.596 174.426 123.042 174.426 123.547C174.426 124.318 174.585 124.953 174.903 125.453C175.226 125.953 175.694 126.203 176.309 126.203Z" fill="white"/>
<path d="M24.6545 119.617C25.7195 119.667 25.9941 120.575 26.0107 121H27.5C27.4335 119.35 26.2603 118.342 24.6296 118.342C22.7908 118.342 21.4263 119.5 21.4263 122.117C21.4263 123.733 22.2001 125.65 24.6212 125.65C26.4683 125.65 27.4584 124.275 27.4834 123.192H25.9941C25.9691 123.683 25.6197 124.342 24.6379 124.392C23.5479 124.358 23.0903 123.508 23.0903 122.117C23.0903 119.708 24.1553 119.633 24.6545 119.617ZM24.7544 113.667C20.1616 113.667 16.4342 117.4 16.4342 122C16.4342 126.6 20.1616 130.333 24.7544 130.333C29.3471 130.333 33.0746 126.6 33.0746 122C33.0746 117.4 29.3471 113.667 24.7544 113.667ZM24.7544 128.667C21.0852 128.667 18.0982 125.675 18.0982 122C18.0982 118.325 21.0852 115.333 24.7544 115.333C28.4236 115.333 31.4105 118.325 31.4105 122C31.4105 125.675 28.4236 128.667 24.7544 128.667Z" fill="#E6E6E6"/>
</svg>
