<svg width="51" height="50" viewBox="0 0 51 50" fill="none" xmlns="http://www.w3.org/2000/svg">
<g clip-path="url(#clip0_26_85)">
<path d="M39.0305 0H12.5098C6.04791 0 0.809509 5.24666 0.809509 11.7188V38.2812C0.809509 44.7533 6.04791 50 12.5098 50H39.0305C45.4924 50 50.7308 44.7533 50.7308 38.2812V11.7188C50.7308 5.24666 45.4924 0 39.0305 0Z" fill="white"/>
<path d="M39.0305 0H12.5098C6.04791 0 0.809509 5.24666 0.809509 11.7188V38.2812C0.809509 44.7533 6.04791 50 12.5098 50H39.0305C45.4924 50 50.7308 44.7533 50.7308 38.2812V11.7188C50.7308 5.24666 45.4924 0 39.0305 0Z" fill="#1D9BF0"/>
<path d="M39.7271 17.8537C39.7485 18.1637 39.7485 18.4736 39.7485 18.7865C39.7485 28.3172 32.5045 39.309 19.2584 39.309V39.3031C15.3452 39.3088 11.5132 38.1863 8.21973 36.0697C8.78901 36.1381 9.36038 36.1728 9.93382 36.1738C13.1771 36.1765 16.3272 35.0869 18.8777 33.0803C17.375 33.0517 15.9187 32.5536 14.7125 31.6556C13.5062 30.7576 12.6103 29.5045 12.1499 28.0715C13.2288 28.2799 14.3411 28.2374 15.401 27.9473C12.0414 27.2674 9.62435 24.3109 9.62435 20.8773V20.7859C10.6259 21.3447 11.7467 21.6543 12.8926 21.6887C9.72848 19.5705 8.75307 15.3543 10.6637 12.0578C12.4716 14.2862 14.7273 16.1088 17.2843 17.4071C19.8414 18.7053 22.6425 19.4502 25.5057 19.5934C25.2203 18.3626 25.2624 17.0783 25.628 15.8689C25.9936 14.6596 26.6698 13.5676 27.589 12.7021C30.4895 9.97128 35.0512 10.1113 37.7778 13.0148C39.3905 12.696 40.937 12.1038 42.3508 11.2639C41.8133 12.9339 40.6882 14.3515 39.1851 15.2529C40.6127 15.0843 42.0068 14.7016 43.3206 14.1176C42.3543 15.5672 41.1373 16.8323 39.7271 17.8537Z" fill="white"/>
</g>
<defs>
<clipPath id="clip0_26_85">
<rect width="49.9213" height="50" fill="white" transform="translate(0.809509)"/>
</clipPath>
</defs>
</svg>
