<svg width="16" height="17" viewBox="0 0 16 17" fill="none" xmlns="http://www.w3.org/2000/svg">
<path d="M15.2 16.4583C13.3987 16.4583 11.5927 16.0437 9.782 15.2143C7.97133 14.385 6.303 13.2073 4.777 11.6813C3.26367 10.1553 2.08933 8.48166 1.254 6.66033C0.418 4.83833 0 3.03766 0 1.25833V0.458328H4.439L5.287 4.54133L2.591 7.05133C3.047 7.842 3.51933 8.56433 4.008 9.21833C4.49667 9.87233 5.00567 10.462 5.535 10.9873C6.06967 11.5473 6.67233 12.0707 7.343 12.5573C8.01367 13.044 8.779 13.524 9.639 13.9973L12.25 11.2893L16 12.0453V16.4583H15.2Z" fill="white"/>
</svg>
