<svg width="229" height="105" viewBox="0 0 229 105" fill="none" xmlns="http://www.w3.org/2000/svg">
<path d="M96.2395 36.7084H103.356L111.16 30.5209C111.38 30.3452 111.643 30.2057 111.932 30.1105C112.221 30.0153 112.531 29.9663 112.844 29.9663C113.157 29.9663 113.467 30.0153 113.756 30.1105C114.045 30.2057 114.308 30.3452 114.528 30.5209L120.648 35.3772C121.09 35.7285 121.338 36.2037 121.338 36.6991C121.338 37.1944 121.09 37.6696 120.648 38.0209L115.216 42.3334H96.2395V46.0834C96.2395 46.5807 95.9896 47.0576 95.5447 47.4093C95.0999 47.7609 94.4965 47.9584 93.8674 47.9584C93.2383 47.9584 92.6349 47.7609 92.1901 47.4093C91.7452 47.0576 91.4953 46.5807 91.4953 46.0834V40.4584C91.4953 39.4639 91.9952 38.51 92.8849 37.8068C93.7746 37.1035 94.9813 36.7084 96.2395 36.7084ZM82.007 46.0834V53.5834L76.5749 57.8772C76.1331 58.2285 75.8851 58.7037 75.8851 59.1991C75.8851 59.6944 76.1331 60.1696 76.5749 60.5209L82.6949 65.3772C82.9154 65.5529 83.1777 65.6924 83.4668 65.7876C83.7559 65.8828 84.0659 65.9318 84.379 65.9318C84.6922 65.9318 85.0022 65.8828 85.2913 65.7876C85.5804 65.6924 85.8427 65.5529 86.0632 65.3772L96.2395 57.3334H105.728C106.357 57.3334 106.96 57.1359 107.405 56.7843C107.85 56.4326 108.1 55.9557 108.1 55.4584V53.5834H110.472C111.101 53.5834 111.705 53.3859 112.149 53.0343C112.594 52.6826 112.844 52.2057 112.844 51.7084V49.8334H115.216C115.845 49.8334 116.449 49.6359 116.894 49.2843C117.338 48.9326 117.588 48.4557 117.588 47.9584V46.0834H100.984V47.9584C100.984 48.953 100.484 49.9068 99.5942 50.6101C98.7044 51.3133 97.4977 51.7084 96.2395 51.7084H91.4953C90.2371 51.7084 89.0304 51.3133 88.1407 50.6101C87.251 49.9068 86.7511 48.953 86.7511 47.9584V42.3334L82.007 46.0834Z" fill="white"/>
<path d="M134.37 41H146.679L105.65 0L64.6209 41H76.9297L105.65 12.2544L134.37 41ZM85.1355 8.24556V0H72.8268V20.5L85.1355 8.24556Z" fill="white"/>
<path d="M1.21875 77.4897C3.55208 77.5731 5.41667 77.6147 6.8125 77.6147C9.41667 77.5314 11.0156 77.4897 11.6094 77.4897C12.5781 77.4897 13.4896 77.5314 14.3438 77.6147C15.1979 77.6981 16.0781 77.8543 16.9844 78.0835C17.901 78.3022 18.7292 78.5939 19.4688 78.9585C20.2083 79.3127 20.9167 79.7866 21.5938 80.3804C22.2708 80.9741 22.8385 81.6616 23.2969 82.4429C23.7552 83.2241 24.1198 84.1668 24.3906 85.271C24.6615 86.3647 24.7969 87.5783 24.7969 88.9116C24.7135 90.1929 24.4896 91.37 24.125 92.4429C23.7708 93.5158 23.3125 94.4429 22.75 95.2241C22.1979 96.0054 21.5417 96.7033 20.7812 97.3179C20.0208 97.9325 19.224 98.4325 18.3906 98.8179C17.5677 99.2033 16.6719 99.521 15.7031 99.771C14.7448 100.021 13.8073 100.198 12.8906 100.302C11.9844 100.406 11.0469 100.458 10.0781 100.458C6.17188 100.458 3.20833 100.49 1.1875 100.552C1.14583 100.427 1.125 100.323 1.125 100.24C1.125 100.167 1.14583 100.026 1.1875 99.8179C1.5 99.7866 1.75 99.7606 1.9375 99.7397C2.125 99.7189 2.38021 99.6825 2.70312 99.6304C3.03646 99.5783 3.30208 99.521 3.5 99.4585C3.70833 99.3856 3.92188 99.297 4.14062 99.1929C4.35938 99.0887 4.52083 98.9637 4.625 98.8179C4.73958 98.672 4.79688 98.5054 4.79688 98.3179C4.92188 95.0575 4.98438 91.771 4.98438 88.4585C4.98438 85.0835 4.93229 82.172 4.82812 79.7241C4.81771 79.4533 4.69792 79.2241 4.46875 79.0366C4.23958 78.8387 3.90625 78.6877 3.46875 78.5835C3.04167 78.4793 2.67708 78.4064 2.375 78.3647C2.08333 78.3127 1.69792 78.2658 1.21875 78.2241C1.17708 78.0366 1.15625 77.9064 1.15625 77.8335C1.15625 77.771 1.17708 77.6564 1.21875 77.4897ZM8.48438 79.7241C8.34896 83.2658 8.28125 86.5627 8.28125 89.6147C8.28125 91.3022 8.33854 94.5314 8.45312 99.3022C8.90104 99.3231 9.54167 99.3335 10.375 99.3335C12.0625 99.3335 13.5625 99.0783 14.875 98.5679C16.1875 98.047 17.2656 97.3231 18.1094 96.396C18.9531 95.4689 19.5885 94.3752 20.0156 93.1147C20.4531 91.8439 20.6719 90.4429 20.6719 88.9116C20.6719 88.12 20.6094 87.3439 20.4844 86.5835C20.3594 85.8231 20.1615 85.047 19.8906 84.2554C19.6198 83.4637 19.2448 82.7345 18.7656 82.0679C18.2865 81.4012 17.7135 80.8075 17.0469 80.2866C16.3906 79.7554 15.5781 79.3439 14.6094 79.0522C13.651 78.7502 12.5885 78.5991 11.4219 78.5991C10.349 78.5991 9.36979 78.6668 8.48438 78.8022V79.7241ZM40.3125 92.1772H31.7969C31.7552 92.8022 31.7344 93.3543 31.7344 93.8335C31.7656 95.3856 32.2188 96.6304 33.0938 97.5679C33.9688 98.495 35.1406 98.9585 36.6094 98.9585C37.0052 98.9585 37.375 98.9168 37.7188 98.8335C38.0625 98.7397 38.3438 98.6356 38.5625 98.521C38.7917 98.4064 39.026 98.2397 39.2656 98.021C39.5052 97.8022 39.6771 97.6304 39.7812 97.5054C39.8958 97.37 40.0469 97.172 40.2344 96.9116C40.4219 96.6408 40.5469 96.4689 40.6094 96.396C40.8594 96.4481 41.0625 96.5627 41.2188 96.7397C40.6979 98.1356 39.8906 99.1825 38.7969 99.8804C37.7031 100.568 36.5156 100.912 35.2344 100.912C34.599 100.912 33.9792 100.828 33.375 100.662C32.7812 100.505 32.2031 100.245 31.6406 99.8804C31.0781 99.5158 30.5885 99.0679 30.1719 98.5366C29.7552 97.995 29.4219 97.3231 29.1719 96.521C28.9219 95.7085 28.7969 94.8127 28.7969 93.8335C28.7969 91.6356 29.4688 89.8231 30.8125 88.396C32.1562 86.9689 33.8073 86.2554 35.7656 86.2554C36.6302 86.2554 37.3802 86.3804 38.0156 86.6304C38.6615 86.87 39.1615 87.1981 39.5156 87.6147C39.8802 88.0314 40.1458 88.4897 40.3125 88.9897C40.4896 89.4793 40.5781 90.0054 40.5781 90.5679C40.5781 91.0887 40.4896 91.6252 40.3125 92.1772ZM35.3906 87.271C34.6719 87.271 33.9896 87.5887 33.3438 88.2241C32.7083 88.8595 32.25 89.8231 31.9688 91.1147H37.5938C37.6979 90.7189 37.75 90.3752 37.75 90.0835C37.75 89.271 37.5625 88.5991 37.1875 88.0679C36.8125 87.5366 36.2135 87.271 35.3906 87.271ZM45.1562 90.1929C45.1562 89.047 45.6771 88.1043 46.7188 87.3647C47.7708 86.6252 49.0104 86.2554 50.4375 86.2554C52.1875 86.2554 53.4167 86.6043 54.125 87.3022C54.8438 88.0002 55.2031 89.1772 55.2031 90.8335V97.3179C55.2031 97.9012 55.4167 98.1929 55.8438 98.1929C56.1875 98.1929 56.625 97.7762 57.1562 96.9429C57.5312 96.9741 57.7865 97.1408 57.9219 97.4429C57.849 97.547 57.724 97.7345 57.5469 98.0054C57.3698 98.2762 57.2396 98.4689 57.1562 98.5835C57.0729 98.6981 56.9427 98.8752 56.7656 99.1147C56.5885 99.3439 56.4427 99.5158 56.3281 99.6304C56.224 99.745 56.0781 99.8804 55.8906 100.037C55.7135 100.193 55.5469 100.313 55.3906 100.396C55.2448 100.469 55.0729 100.531 54.875 100.583C54.6771 100.646 54.4792 100.677 54.2812 100.677C53.7604 100.677 53.3281 100.49 52.9844 100.115C52.651 99.7397 52.4531 99.1616 52.3906 98.3804C52.3802 98.3908 52.2188 98.5418 51.9062 98.8335C51.5938 99.1252 51.375 99.3231 51.25 99.4272C51.1354 99.521 50.9115 99.6929 50.5781 99.9429C50.2552 100.182 49.9792 100.354 49.75 100.458C49.5208 100.563 49.2344 100.662 48.8906 100.755C48.5469 100.86 48.2083 100.912 47.875 100.912C47.3438 100.912 46.8698 100.839 46.4531 100.693C46.0469 100.547 45.7292 100.37 45.5 100.162C45.2708 99.9533 45.0833 99.7137 44.9375 99.4429C44.7917 99.1616 44.6927 98.9064 44.6406 98.6772C44.599 98.4481 44.5781 98.2189 44.5781 97.9897C44.5781 97.2918 44.6927 96.7033 44.9219 96.2241C45.1615 95.745 45.599 95.297 46.2344 94.8804C46.8802 94.4637 47.6719 94.0939 48.6094 93.771C49.5469 93.4481 50.8073 93.0835 52.3906 92.6772V90.5054C52.3906 89.4533 52.1562 88.6668 51.6875 88.146C51.2292 87.6252 50.6094 87.3647 49.8281 87.3647C49.1302 87.3647 48.5417 87.5054 48.0625 87.7866C47.5938 88.0575 47.3073 88.3752 47.2031 88.7397C48.224 88.896 48.7344 89.4533 48.7344 90.4116C48.7344 90.8491 48.5781 91.2345 48.2656 91.5679C47.9531 91.9012 47.5156 92.0679 46.9531 92.0679C46.4844 92.0679 46.0677 91.9064 45.7031 91.5835C45.3385 91.2502 45.1562 90.7866 45.1562 90.1929ZM52.3906 96.9429V93.6772C51.4323 93.896 50.6406 94.1356 50.0156 94.396C49.3906 94.646 48.9115 94.922 48.5781 95.2241C48.2552 95.5262 48.0312 95.8387 47.9062 96.1616C47.7812 96.4741 47.7188 96.8387 47.7188 97.2554C47.7188 97.7762 47.8698 98.1877 48.1719 98.4897C48.4844 98.7814 48.8646 98.9272 49.3125 98.9272C50.3542 98.9272 51.3802 98.2658 52.3906 96.9429ZM59.75 77.9897C61.7292 77.8022 63.4844 77.3752 65.0156 76.7085C65.2969 76.8231 65.4792 76.9637 65.5625 77.1304C65.5625 88.9325 65.6042 95.995 65.6875 98.3179C65.6979 98.5366 65.7604 98.7345 65.875 98.9116C66 99.0783 66.1354 99.2137 66.2812 99.3179C66.4271 99.4116 66.625 99.5002 66.875 99.5835C67.125 99.6564 67.3177 99.7085 67.4531 99.7397C67.599 99.7606 67.7917 99.7866 68.0312 99.8179C68.0938 99.9429 68.125 100.073 68.125 100.208C68.125 100.344 68.0938 100.458 68.0312 100.552C66.6562 100.49 65.3229 100.458 64.0312 100.458C62.7604 100.458 61.4375 100.49 60.0625 100.552C60.0208 100.386 60 100.271 60 100.208C60 100.156 60.0208 100.026 60.0625 99.8179C60.4062 99.7762 60.6823 99.7345 60.8906 99.6929C61.1094 99.6408 61.3802 99.5627 61.7031 99.4585C62.0365 99.3543 62.2865 99.2085 62.4531 99.021C62.6198 98.8231 62.7083 98.5887 62.7188 98.3179C62.7604 97.2866 62.7812 94.9793 62.7812 91.396C62.7812 89.7397 62.776 87.4845 62.7656 84.6304C62.7552 81.7762 62.75 80.021 62.75 79.3647C62.1562 79.021 61.1562 78.8075 59.75 78.7241C59.6979 78.5887 59.6719 78.4637 59.6719 78.3491C59.6719 78.245 59.6979 78.1252 59.75 77.9897ZM77.4688 77.4897C79.6979 77.5731 81.4479 77.6147 82.7188 77.6147C83.9375 77.6147 85.2812 77.5731 86.75 77.4897C86.7917 77.6564 86.8125 77.771 86.8125 77.8335C86.8125 77.9481 86.7917 78.0783 86.75 78.2241C85.8438 78.2658 85.2188 78.3804 84.875 78.5679C84.5417 78.745 84.375 78.9793 84.375 79.271C84.375 79.3543 84.3854 79.4533 84.4062 79.5679C84.4375 79.672 86.5521 84.896 90.75 95.2397H90.9062L93.9531 87.1147L91.2031 80.146C90.7656 79.021 89.7188 78.3804 88.0625 78.2241C88.0208 78.0366 88 77.9064 88 77.8335C88 77.7293 88.0208 77.6147 88.0625 77.4897C89.5312 77.5731 91.1615 77.6147 92.9531 77.6147C94.599 77.6147 96.1562 77.5731 97.625 77.4897C97.6667 77.6564 97.6875 77.771 97.6875 77.8335C97.6875 77.9481 97.6667 78.0783 97.625 78.2241C96.3646 78.2658 95.5469 78.3647 95.1719 78.521C94.8073 78.6668 94.625 78.9481 94.625 79.3647C94.625 79.3752 94.6979 79.6356 94.8438 80.146L100.609 95.2397H100.766L106.469 79.9429C106.531 79.7866 106.562 79.5835 106.562 79.3335C106.562 79.0002 106.359 78.7606 105.953 78.6147C105.547 78.4585 104.885 78.3283 103.969 78.2241C103.927 77.995 103.906 77.8543 103.906 77.8022C103.906 77.7189 103.927 77.6147 103.969 77.4897C105.25 77.5522 106.474 77.5835 107.641 77.5835C108.776 77.5835 109.896 77.5522 111 77.4897C111.042 77.6147 111.062 77.7189 111.062 77.8022C111.062 77.9689 111.042 78.1095 111 78.2241C110.26 78.297 109.646 78.4533 109.156 78.6929C108.677 78.9325 108.302 79.3491 108.031 79.9429L100.094 100.912H99.3906L94.6875 89.0054L90.2344 100.912H89.5312L80.9531 80.146C80.4948 79.0418 79.3333 78.4012 77.4688 78.2241C77.4271 78.0366 77.4062 77.9064 77.4062 77.8335C77.4062 77.7293 77.4271 77.6147 77.4688 77.4897ZM112.094 87.5991C114.115 87.3908 115.875 86.9637 117.375 86.3179C117.635 86.422 117.818 86.5575 117.922 86.7241C117.922 92.1304 117.964 95.995 118.047 98.3179C118.057 98.5887 118.135 98.8231 118.281 99.021C118.438 99.2085 118.656 99.3543 118.938 99.4585C119.219 99.5627 119.453 99.6408 119.641 99.6929C119.828 99.7345 120.073 99.7762 120.375 99.8179C120.438 99.9429 120.469 100.073 120.469 100.208C120.469 100.344 120.438 100.458 120.375 100.552C119 100.49 117.667 100.458 116.375 100.458C115.104 100.458 113.781 100.49 112.406 100.552C112.365 100.386 112.344 100.271 112.344 100.208C112.344 100.156 112.365 100.026 112.406 99.8179C112.75 99.7762 113.031 99.7345 113.25 99.6929C113.469 99.6408 113.74 99.5627 114.062 99.4585C114.385 99.3543 114.63 99.2085 114.797 99.021C114.964 98.8231 115.052 98.5887 115.062 98.3179C115.104 97.2866 115.125 96.0366 115.125 94.5679C115.125 94.0783 115.12 93.245 115.109 92.0679C115.099 90.8908 115.094 89.8595 115.094 88.9741C114.5 88.6095 113.5 88.396 112.094 88.3335C112.052 88.1668 112.031 88.0366 112.031 87.9429C112.031 87.8804 112.052 87.7658 112.094 87.5991ZM114.547 81.0679C114.547 80.5366 114.734 80.0835 115.109 79.7085C115.495 79.3335 115.948 79.146 116.469 79.146C117 79.146 117.453 79.3335 117.828 79.7085C118.203 80.0835 118.391 80.5366 118.391 81.0679C118.391 81.5887 118.203 82.0418 117.828 82.4272C117.453 82.8022 117 82.9897 116.469 82.9897C115.948 82.9897 115.495 82.8022 115.109 82.4272C114.734 82.0418 114.547 81.5887 114.547 81.0679ZM127.062 83.5991C127.167 83.5575 127.286 83.5366 127.422 83.5366C127.557 83.5366 127.698 83.5575 127.844 83.5991V87.021H132.578C132.641 87.1772 132.672 87.37 132.672 87.5991C132.672 87.797 132.641 87.9793 132.578 88.146H127.844V96.4897C127.844 98.1356 128.599 98.9585 130.109 98.9585C130.682 98.9585 131.172 98.8491 131.578 98.6304C131.995 98.4116 132.453 98.0835 132.953 97.646C133.214 97.6772 133.385 97.8022 133.469 98.021C133.01 98.8439 132.333 99.5314 131.438 100.083C130.542 100.636 129.557 100.912 128.484 100.912C125.964 100.912 124.703 99.3856 124.703 96.3335V88.146H122.781C122.74 87.9585 122.719 87.8387 122.719 87.7866C122.719 87.7762 122.74 87.6564 122.781 87.4272C123.281 87.1772 123.661 86.9741 123.922 86.8179C124.193 86.6512 124.531 86.4168 124.938 86.1147C125.354 85.8127 125.729 85.4585 126.062 85.0522C126.406 84.6356 126.74 84.1512 127.062 83.5991ZM135 77.9897C136.979 77.8022 138.734 77.3752 140.266 76.7085C140.547 76.8231 140.729 76.9637 140.812 77.1304V89.1304C141.844 88.2554 142.812 87.5575 143.719 87.0366C144.625 86.5158 145.547 86.2554 146.484 86.2554C147.661 86.2554 148.5 86.5887 149 87.2554C149.5 87.922 149.76 88.9637 149.781 90.3804L149.906 98.3179C149.917 98.5887 149.995 98.8231 150.141 99.021C150.297 99.2085 150.516 99.3543 150.797 99.4585C151.078 99.5627 151.312 99.6408 151.5 99.6929C151.688 99.7345 151.932 99.7762 152.234 99.8179C152.286 100.078 152.312 100.219 152.312 100.24C152.312 100.292 152.286 100.396 152.234 100.552C150.891 100.49 149.667 100.458 148.562 100.458C147.448 100.458 146.219 100.49 144.875 100.552C144.833 100.386 144.812 100.261 144.812 100.177C144.812 100.104 144.833 99.9845 144.875 99.8179C145.146 99.7762 145.37 99.7345 145.547 99.6929C145.734 99.6408 145.943 99.5627 146.172 99.4585C146.411 99.3543 146.589 99.2085 146.703 99.021C146.828 98.8231 146.891 98.5887 146.891 98.3179L146.922 90.896C146.922 89.0106 146.359 88.0679 145.234 88.0679C144.182 88.0679 142.708 88.7502 140.812 90.1147C140.854 94.4481 140.896 97.1825 140.938 98.3179C140.948 98.5366 141.01 98.7345 141.125 98.9116C141.25 99.0783 141.385 99.2137 141.531 99.3179C141.677 99.4116 141.875 99.5002 142.125 99.5835C142.375 99.6564 142.568 99.7085 142.703 99.7397C142.849 99.7606 143.042 99.7866 143.281 99.8179C143.344 99.9429 143.375 100.073 143.375 100.208C143.375 100.344 143.344 100.458 143.281 100.552C141.906 100.49 140.573 100.458 139.281 100.458C138.01 100.458 136.688 100.49 135.312 100.552C135.271 100.386 135.25 100.271 135.25 100.208C135.25 100.156 135.271 100.026 135.312 99.8179C135.656 99.7762 135.932 99.7345 136.141 99.6929C136.359 99.6408 136.63 99.5627 136.953 99.4585C137.286 99.3543 137.536 99.2085 137.703 99.021C137.87 98.8231 137.958 98.5887 137.969 98.3179C138.01 97.2866 138.031 94.9793 138.031 91.396C138.031 89.7397 138.026 87.4845 138.016 84.6304C138.005 81.7762 138 80.021 138 79.3647C137.406 79.021 136.406 78.8075 135 78.7241C134.948 78.5887 134.922 78.4637 134.922 78.3491C134.922 78.245 134.948 78.1252 135 77.9897ZM162.141 77.4897C163.901 77.5522 165.714 77.5835 167.578 77.5835C169.453 77.5835 171.266 77.5522 173.016 77.4897C173.057 77.6564 173.078 77.771 173.078 77.8335C173.078 77.9064 173.057 78.0366 173.016 78.2241C172.703 78.2554 172.453 78.2814 172.266 78.3022C172.078 78.3231 171.818 78.3595 171.484 78.4116C171.161 78.4637 170.896 78.5262 170.688 78.5991C170.49 78.6616 170.281 78.745 170.062 78.8491C169.844 78.9533 169.677 79.0783 169.562 79.2241C169.458 79.37 169.406 79.5366 169.406 79.7241C169.365 81.1095 169.344 84.9168 169.344 91.146C169.344 94.1147 169.839 96.271 170.828 97.6147C171.828 98.9585 173.521 99.6304 175.906 99.6304C178.312 99.6304 180.167 98.9012 181.469 97.4429C182.771 95.9741 183.422 93.8752 183.422 91.146C183.422 86.1772 183.391 82.4429 183.328 79.9429C183.307 79.0054 182.156 78.4325 179.875 78.2241C179.833 77.995 179.812 77.8543 179.812 77.8022C179.812 77.7189 179.833 77.6147 179.875 77.4897C181.531 77.5522 183.01 77.5835 184.312 77.5835C185.146 77.5835 186.547 77.5522 188.516 77.4897C188.557 77.6147 188.578 77.7189 188.578 77.8022C188.578 77.9689 188.557 78.1095 188.516 78.2241C186.255 78.4325 185.099 79.0054 185.047 79.9429C184.943 82.422 184.891 86.1564 184.891 91.146C184.891 92.6668 184.693 94.0262 184.297 95.2241C183.901 96.4116 183.396 97.3647 182.781 98.0835C182.167 98.8022 181.448 99.396 180.625 99.8647C179.812 100.333 179.026 100.656 178.266 100.833C177.505 101.011 176.74 101.099 175.969 101.099C174.938 101.099 174.01 101.042 173.188 100.927C172.365 100.813 171.562 100.62 170.781 100.349C170 100.068 169.323 99.6825 168.75 99.1929C168.177 98.6929 167.672 98.0835 167.234 97.3647C166.797 96.646 166.469 95.7658 166.25 94.7241C166.031 93.6825 165.922 92.4897 165.922 91.146V88.5835C165.922 85.0939 165.865 82.1408 165.75 79.7241C165.74 79.4533 165.62 79.2241 165.391 79.0366C165.161 78.8387 164.828 78.6877 164.391 78.5835C163.964 78.4793 163.599 78.4064 163.297 78.3647C163.005 78.3127 162.62 78.2658 162.141 78.2241C162.099 78.0366 162.078 77.9064 162.078 77.8335C162.078 77.771 162.099 77.6564 162.141 77.4897ZM196.297 100.912C195.786 100.912 195.323 100.87 194.906 100.787C194.5 100.703 194.182 100.615 193.953 100.521C193.734 100.427 193.438 100.287 193.062 100.099C192.656 100.099 192.057 100.25 191.266 100.552C191.13 100.469 191.036 100.375 190.984 100.271C191.036 100.104 191.099 99.5366 191.172 98.5679C191.255 97.5991 191.297 96.7345 191.297 95.9741C191.432 95.9116 191.677 95.8804 192.031 95.8804C192.219 96.4845 192.411 97.0002 192.609 97.4272C192.818 97.8543 193.078 98.271 193.391 98.6772C193.714 99.0731 194.099 99.3752 194.547 99.5835C195.005 99.7814 195.526 99.8804 196.109 99.8804C197.016 99.8804 197.724 99.646 198.234 99.1772C198.755 98.7085 199.016 98.1772 199.016 97.5835C199.016 97.1356 198.943 96.7554 198.797 96.4429C198.651 96.1304 198.323 95.8022 197.812 95.4585C197.312 95.1043 196.594 94.7554 195.656 94.4116C195.073 94.2033 194.578 94.0106 194.172 93.8335C193.766 93.6564 193.344 93.4377 192.906 93.1772C192.479 92.9168 192.135 92.6512 191.875 92.3804C191.615 92.0991 191.401 91.7658 191.234 91.3804C191.068 90.995 190.984 90.5731 190.984 90.1147C190.984 89.7814 191.021 89.4533 191.094 89.1304C191.177 88.797 191.328 88.4533 191.547 88.0991C191.776 87.745 192.057 87.4377 192.391 87.1772C192.734 86.9064 193.188 86.6877 193.75 86.521C194.323 86.3439 194.969 86.2554 195.688 86.2554C195.979 86.2554 196.234 86.271 196.453 86.3022C196.682 86.3335 196.953 86.3908 197.266 86.4741C197.589 86.547 197.766 86.5887 197.797 86.5991C198.026 86.547 198.26 86.4793 198.5 86.396C198.75 86.3127 198.891 86.2658 198.922 86.2554H199.328C199.578 87.7554 199.901 89.0314 200.297 90.0835C200.172 90.2189 199.969 90.2866 199.688 90.2866C198.823 89.245 198.083 88.4845 197.469 88.0054C196.865 87.5158 196.177 87.271 195.406 87.271C194.802 87.271 194.271 87.4064 193.812 87.6772C193.354 87.9481 193.125 88.3595 193.125 88.9116C193.125 89.6095 193.401 90.1564 193.953 90.5522C194.516 90.9481 195.552 91.4533 197.062 92.0679C197.76 92.3491 198.307 92.5835 198.703 92.771C199.109 92.9585 199.516 93.1825 199.922 93.4429C200.328 93.7033 200.625 93.9741 200.812 94.2554C201.01 94.5262 201.172 94.8543 201.297 95.2397C201.422 95.6252 201.484 96.0731 201.484 96.5835C201.484 97.6877 200.974 98.6877 199.953 99.5835C198.943 100.469 197.724 100.912 196.297 100.912Z" fill="white"/>
</svg>
